<?xml version="1.0" encoding="UTF-8"?>
<svg version="1.1" viewBox="0 0 1252 1020" width="1280" height="1280" xmlns="http://www.w3.org/2000/svg">
<path transform="translate(0)" d="m0 0h1252v1020h-1252z" fill="#F9F9F8"/>
<path transform="translate(268,180)" d="m0 0h10l17 3 2 1h25l19 6 17 6 16 8 17 6 15 4 11 1 2 1h20l3-1h8l12 3 16 5 23 3 13 4 9 4 12 3 7 1h14l7 1 1 3 24-2 17-3 15-2 23-4 11-3 11-2 9-3 13-3 21-7 12-3 9-3 17-5 15-3 2-1h28l9 3 10 10 8 11 5 9-1 6 3-1 2 3v10l-7 16-9 13-1 3-2 1-3 6-5 5-7 9-12 13-3 2-3 7h11l7-2 6-5 4-2 1-2 17-8 7-2h9l11 3 14 7 7 7 4 11 2 9 9 6 24 13 15 8 10 4 5-1 12-13 16-12 14-8 17-5 12-2h25l14 3 6 3 5 6 3 11 3 19 5 26 5 35 4 26 3 11 4 29 3 35 2 11 4 9 6 18 6 21 4 27v13l-6 7-16 9-17 7-25 6-4 1h-12v2l-52 7-46 7-30 4-23 4-20 6-10 2-10 4-15 3-11 5-9 3-8 3-16 4-9 3-24 5-9 2-35 5-25 3-56 3-28 1-70-1-45-2-30-2-36-4-29-6-15-5-12-5-11-6-1-3h-2l-1-5v-10l3-15 3-7 4-6h3l1-2 7-2 1-4-4-2-6-4v-2l-4-2-3-3v-2h-2l-3-8-1-4-2-4-4-2-20-2-39-2-51-2-49-4-14-2-14-4-12-7-4-9-6-29-5-25-1-11-2-5-3-16-7-26-11-44-1-9-3-8-4-16-5-22-4-13-2-7-5-12-1-8 5-5 11-7 15-4 13-2h22l22 5 15 6 7 1 5-4 13-19 8-13 10-15 11-15 11-14 12-14 11-11-6-4-2-3-1-5v-11l2-9 4-9z" fill="#A7A7A9"/>
<path transform="translate(876,356)" d="m0 0 9 1 12 6 10 4 13 7 10 4 15 7 25 13 15 6 9 3 10 2h20l10-4 10-8 8-9 8-12 3-5 2 1 5 26 5 35 4 26 3 11 4 29 3 35 2 11 4 9 6 18 6 21 4 27v13l-6 7-16 9-17 7-25 6-4 1h-12v2l-52 7-46 7-30 4-23 4-20 6-10 2-10 4-15 3-11 5-9 3-8 3-16 4-9 3-24 5-9 2-35 5-25 3-56 3-28 1-70-1-45-2-30-2-36-4-29-6-15-5-12-5-11-6-1-3h-2l-1-5v-10l3-15 3-7 4-6h3l1-2 7-2 1-4-4-2-6-4v-2l-4-2-3-3v-2h-2l-3-8-1-4-2-4-4-2-20-2-39-2-51-2-49-4-14-2-14-4-11-7 3-2 24-2 1-1 17-3 25-7 30-12 21-10 6-3h3v2h2v3l3-1 1 4 20 2 25 2 29 3 11 3 5 5v2l5 2 14 8 5 2 8 6v2l4 2 1 2 5 3 6 6h4l-2-4-8-7-11-10-16-12-14-8-10-2 3-2h9l2-1v-3l21-9 51-17 8-3 21-6 39-13 25-9 11-5 12-5 16-8 12-8 2-2h5v2l6 2 16 8 20 11 19 11 15 10 10 8 13 8 5 1 1-10-6-11-5-5-9-16v-3l6 1 6 3 13 3 6 4 5 5 6 2 5-1 1-7-3-5v-3l9-1 8 3 13 10 3 1-8-7-5-5-7-4-9-6-2-1v-2l-4-1-5-12-1-4h-2l-6-10-7-8-4-6 9 2 12 5 19 8 11 6 6 5v2l3 1 5 5 11 12 8 7 12 10 4 1 1-7-5-5-9-8-5-5-10-9-6-4 2-1 2-5h5l8 9 14 16v2l4 2 2 5h4l2-5-1-6-9-10-8-8-5-3-11-8-14-9-7-14-3-9h-2l-4-5v-2h-2v-2h-2l-4-7 2-1 17 5 24 10 13 4v2l5 1h15v-3l5 1 7 10 13 12 8 8v3l-5-2-5-4-16-9-9-5-9-2h-5l9 9 10 8 14 11 11 9 12 11 8 6 4 1v2l2-2v-5l-7-9-2-7 2-5 2-6-9-11-5-4-1-2-5-3-11-9-8-6-5-4-7-4v-2l-9-3v-2l-4-1-9-11v-2l-3-1-4-7-2-1v-5l1-1h9l9 4 8 7 7 1 2-2 7 1 11 6 13 8 11 7 10 7 6 4 7 6 4 5 4 4 6 7v2h2l1 4 4 2 8 10 2 4 7 6h2l5-6h2l1-3 5-4 4-5-2-4-6-5-4-1-1-3-11-7-10-9-13-11-14-11-14-10-22-14-3-2 2-4 5-5 4-2 1-2h2v-2l11-7 14-6z" fill="#6E7073"/>
<path transform="translate(367,225)" d="m0 0h2v9l-5 14-8 15-8 14-8 16-4 13 2-2v2l4-1 1-6 2-1v4l4-10 6-9 5-7 3-11 7 5 1 6 8-7 3-4h2l2-5 8-8 10-8 5-5 3-1v14l-4 15-3 3-7 14-9 22-4 9 4-1 9-11 8-9 5-5 6-5 1-3 5-3 8-6 15-13 8-7h2v36l-1 6h-1v-11l-1 1-6 11-7 15-3 11-4 8-2 10 1 3 6-11 9-14 3-5 4-6 11-12 5-3 5-2 14-11 12-9h2v8l2 18v4h6l-1 4h2l2-4 12-14 10-14h3l-3 7-4 5-6 9-7 10-10 16-5 6h-2l-2 5-7 9-3 7h-2v5l-2 2v2l-7 1-5 5-2 3 5 2 6 2 1-2 8 2 5 1h3l2 1v4l3-1 2 1 1-2 7 2v-2l7-1v2h5l2 2 1-5h12l4 1 4-3h4l5-2h4v-2l7-2 1 2 6-3h5l4-3h3l5 1 2-2v3l2 1-4 5v-2h-2v3h3v2l-4 1v2l-5 2-4-1h-4l2 3 2-1 2 3 8-1-1-2h6l2-3h2l12-3v4l4-1 1-1 7-3 1 1 2-3 4 1 1-2 2 1 1-2 8-1h5l-4 4-12 7-12 5-11 5-15 6-36 12-25 9-38 14-22 7-21 6-16 4-17 5-15 4-27 9-25 8-10 4-10 3-10 4-21 7-8 3-30 12-17 6-11 5-10 3-9 4-13 4-10 4-31 10-12 3h-7l-1-1-13-1-7-4-2-9-2-5-3-16-7-26-11-44-1-9-3-8-4-16-5-22-4-13-1-7 20 8 23 6h18l11-4 10-7h2v-2l11-7 7-8 3-1 2-5h2l2-5 8-11 12-17 24-32 11-14 9-10 7-6 5-2h15l26 6 4 2-8 16-4 11-6 17-9 26-5 15-13 26 14-1 5-3 5-19 5-13 5-12 13-28 9-16 7-10 7-6 9-3 2-4 4-7h2v-2l6-4z" fill="#404145"/>
<path transform="translate(268,180)" d="m0 0h10l17 3 2 1h25l19 6 17 6 16 8 17 6 15 4 11 1 2 1h20l3-1h8l12 3 16 5 23 3 13 4 9 4 12 3 7 1h14l7 1 1 3 24-2 17-3 15-2 23-4 11-3 11-2 9-3 13-3 21-7 12-3 9-3 17-5 15-3 2-1h28l9 3 6 6-1 5-11 12-2 3h-2l-1 4-4 5-1 3h-2l-1 4-8 11-2 3h-2v2h-2l-2 5-6 7h-2v2h-2l-2 5-12 12-8 7-12 11-9 7-10 9-13 10-15 12-11 8-9 6-5 3h-8l-12 4-1-1-3 3h-4l-4 4-6-2v-2h-2l-1 2v-2l-4 3-3-1-1 2-1-1-3 3h-4l1 2-11 1-5-5 1-2h8 2 3l-1-3 3-1 2 1v-2h-3v-3l3-1 2-2-2-2-3 1h-4l-2-1-2 2-5 1-5 2-5 1 1-3-4 2h-3v2l-13 4h-2l-3 2-9-1h-5l-2 5-4-2-3-1v-2l-5 2-2-1v2l-5-1-2-1-1 3-5-1-2-4-3 1v-2l-10-1-3-1-5 1-9-4 3-1 2-5 4-3 5-1 2 1v-2l-2-1h2l2-6h2l2-7 10-14 5-5 6-9 9-14 8-11 4-6 3-5v-3l-12 16-12 14-1 2h-2v-3l-5-1-2-16-1-9 1-5-6 4-18 14-5 4-7 3-8 7-6 7-21 35-2-4 2-10 4-8 4-13 13-26 2 1 1-31-11 9-10 9-9 7-5 4h-3l-1 4-9 7-5 7h-2l-2 4-10 12h-4l3-9 10-25 7-12 3-5 3-12 1-14-8 7-14 12-5 6-1 2h-2l-2 4-7 7h-2l-3-7-4-3-3 10-8 11-6 11-2 6-1-4-2 5-5 1-2 2 2-10 6-13 11-21 6-10 7-16 2-13-8 7-5 4h-2v2h-2l-2 6-4 5-4 3-6 2-7 6-8 13-8 15-13 29-6 16-4 10-3 13-3 3-3 1h-14l1-5 8-14 5-14 9-25 6-18 6-17 9-18-24-6-5-1h-15l-8 4-10 10-11 14-14 19-13 17-9 13-7 10-6 9-8 8-7 8-8 5h-2v2l-14 9-9 3h-18l-23-6-15-6-6-3-5-12-1-8 5-5 11-7 15-4 13-2h22l22 5 15 6 7 1 5-4 13-19 8-13 10-15 11-15 11-14 12-14 11-11-6-4-2-3-1-5v-11l2-9 4-9z" fill="#6D6F73"/>
<path transform="translate(1089,541)" d="m0 0 2 4 4 9 6 18 6 21 4 27v13l-6 7-16 9-17 7-25 6-4 1h-12v2l-52 7-46 7-30 4-23 4-20 6-10 2-10 4-15 3-11 5-9 3-8 3-16 4-9 3-24 5-9 2-35 5-25 3-56 3-28 1-70-1-45-2-30-2-36-4-29-6-15-5-12-5-11-6-1-3h-2l-1-5v-10l3-15 3-7 4-6h3l1-2 7-2 1-4-4-2-6-4v-2l-4-2-3-3v-2h-2l-3-8-1-4-2-4-3-3-5-1-1-2h-17v-2l13-1h14l3-12 4-9 5 1 10 7 15 9 22 13 13 5 24 13 19 10 21 10 21 7 28 7 24 5 32 6 25 4h36l28-4 21-4 15-3 46-10 15-4 35-11 12-5 26-11 25-11 26-11 43-14 25-6 38-8 30-6 28-7 16-6 9-6 4-6 2-11z" fill="#C8CCD1"/>
<path transform="translate(828,303)" d="m0 0h9l11 3 14 7 7 7 4 11 2 9 9 6 24 13 15 8 10 4 5-1 12-13 16-12 14-8 17-5 12-2h25l14 3 6 3 5 6 3 11 2 18-5 8-8 11-9 10-8 6-10 4h-20l-18-4-10-5-12-5-25-13-9-4-12-5-17-9-7-3-12-5-10 1-15 7-8 5h-2v2h-2l-1 3-4 2-5 5-1 3 18 11 13 9 12 9 10 8 15 13 8 7 10 6 1 4 6 1 7 7-2 4-6 7-7 6-4 5-2-1-4-4v-2l-3-1-3-5-8-10-3-3v-2h-2l-3-5-5-5v-2l-4-2-5-5-8-7-11-7-10-7-14-8-10-6-4-2h-5l-2 2-7-1-11-9-6-2h-9l-1 5 4 2 3 6 5 5 7 9 3 1 1 2 8 3v2l5 2 6 4 7 6 12 9 3 3 4 2v2l4 2 10 11 1 4-4 7 1 8 6 7 2 5-1 5h-4v-2l-5-2-11-10-8-7-16-13-8-6-13-11-6-7 11 1 10 4 11 7 10 5 6 5 2 1-3-5-13-13-8-7-5-8h-3l-1 3h-15l-5-2v-2l-10-2-20-8-19-7-6-1 3 5v2h2v2h2l4 5v2h2l3 4 2 7 6 12 18 11 8 7 5 3 14 14 3 5-1 7-2 3-4-1-4-6-5-5-8-9v-2l-3-1-8-10-5-1-2 5-1 1 11 8 9 8 10 10v2l4 2 1 4-2 4-5-1-14-12-12-11-6-7-6-5-5-5-8-5-15-7-15-6-11-4-1 1 4 5v2l3 1 7 10 1 4h2l6 13v3l4 1v2l5 2 9 6 8 5 7 8 4 4-5-2-13-10-6-2-7-1-2 1-2-1 4 8-1 7-2 2-8-1-7-5v-2l-4-2-10-3-9-3-8-3 8 16 4 6 4 4 5 9-1 8-1 2h-5l-14-9-9-7-15-10-23-13-18-10-15-8-5-2v-3l12-6h2l1-6 1-5 8-7 4-4h2l2-4 8-6 1-2 5-3 13-11 5-6 6-4h2v-2l8-5 12-8 14-10 17-11 7-8 10-13 3-5 3-11h-3l-2 4-8 7h-3l-1 3-13 10-7 4-3 1v2l-4 1-10 1-4 3h-4l-1 2-1 1 1 4-4 1 1-4-12 5-3 1v-2l9-6h2v-2l9-3 7-2v-2h2v-2l4-1v-2l5-2 8-7 10-5 5-4 8-5 4-1-1-2 5-5 10-8 7-2 4-3 6-1v2l8 1h10l9-1 8-5 3-3 4-2 1-2 17-8z" fill="#E0C365"/>
<path transform="translate(268,180)" d="m0 0h10l17 3 2 1h25l19 6 17 6 16 8 17 6 15 4 11 1 2 1h20l3-1h8l12 3 16 5 23 3 13 4 9 4 12 3 7 1h14l7 1-4 1-1 4-11 13-14 19-8 11-12 14-1 2h-2v-3l-5-1-2-16-1-9 1-5-6 4-18 14-5 4-7 3-8 7-6 7-21 35-2-4 2-10 4-8 4-13 13-26 2 1 1-31-11 9-10 9-9 7-5 4h-3l-1 4-9 7-5 7h-2l-2 4-10 12h-4l3-9 10-25 7-12 3-5 3-12 1-14-8 7-14 12-5 6-1 2h-2l-2 4-7 7h-2l-3-7-4-3-3 10-8 11-6 11-2 6-1-4-2 5-5 1-2 2 2-10 6-13 11-21 6-10 7-16 2-13-8 7-5 4h-2v2h-2l-2 6-4 5-4 3-6 2-7 6-8 13-8 15-13 29-6 16-4 10-3 13-3 3-3 1h-14l1-5 8-14 5-14 9-25 6-18 6-17 9-18-24-6-5-1h-15l-8 4-10 10-11 14-14 19-13 17-9 13-7 10-6 9-8 8-7 8-8 5h-2v2l-14 9-9 3h-18l-23-6-15-6-6-3-5-12-1-8 5-5 11-7 15-4 13-2h22l22 5 15 6 7 1 5-4 13-19 8-13 10-15 11-15 11-14 12-14 11-11-6-4-2-3-1-5v-11l2-9 4-9z" fill="#F4DB72"/>
<path transform="translate(776,387)" d="m0 0h9l9 4 8 7 7 1 2-2 7 1 11 6 13 8 11 7 10 7 6 4 7 6 4 5 4 4 6 7v2h2l1 4 4 2 8 10 2 4 7 6h2l5-6h2l1-3 5-4 7-8h3l3 7-3 3v3l1 3 7-1 4-4h3l1-3 9-6h3v-2l15-10 10-7 6-1-1 6-11 11-5 4h-2l-1 3-11 9-15 13h-2v2l-5 3-3 3-8 7-11 9-12 11-8 7-14 12-17 13-10 8h-3v2l-5 3h-3v2l-5 2h-8l-10-6-6-4-4-6-4-11v-3h-2l-1-8-1-23-1-4-2 1 1-4h-5l-1 5-1 2h-3l-2 6-3 1-5-6-4-2h-4v-2l-3 1-5-5v-2l-4-2v-2l-5-2-5-5-9-7v-2l-10-3-13-4-17-9-6-8-4-4-4-6 9 2 12 5 19 8 11 6 6 5v2l3 1 5 5 11 12 8 7 12 10 4 1 1-7-5-5-9-8-5-5-10-9-6-4 2-1 2-5h5l8 9 14 16v2l4 2 2 5h4l2-5-1-6-9-10-8-8-5-3-11-8-14-9-7-14-3-9h-2l-4-5v-2h-2v-2h-2l-4-7 2-1 17 5 24 10 13 4v2l5 1h15v-3l5 1 7 10 13 12 8 8v3l-5-2-5-4-16-9-9-5-9-2h-5l9 9 10 8 14 11 11 9 12 11 8 6 4 1v2l2-2v-5l-7-9-2-7 2-5 2-6-9-11-5-4-1-2-5-3-11-9-8-6-5-4-7-4v-2l-9-3v-2l-4-1-9-11v-2l-3-1-4-7-2-1v-5z" fill="#6D6F73"/>
<path transform="translate(735,344)" d="m0 0h3l-1 7-3 7-8 11-8 10h-2l-2 4-13 8-17 12-18 12h-2v2l-6 4h-2l-2 4-7 7-10 8-4 1-2 4-8 6-13 13h-2l-1 7-1 4-14 7-6 2-11 8-16 8-11 5-13 5-12 5-14 5-48 16-12 3-8 3-34 11h-5l-1-3 4-5 1-3h2l1-6 2-1v-5l-5-1h-7l-7-3-2 1-9-1-5 1h-4l-5 1-4 3-9 1-14 7h-7l2-4 9-5 12-7 14-7 15-7 18-8 17-6 31-10 16-5 15-5 7-4 18-6 13-5 13-7 2-3 9-3 5-2 4 1h3l12-5 15-8 14-8 6-3h7l13-5 15-8 11-7 30-15 13-7 5-3h3l2-4 3-2 1-3 12-9 4-4 7-4z" fill="#F8F8F7"/>
<path transform="translate(754,384)" d="m0 0 9 2 7 4 8 4 4 7 5 5 7 9 3 1 1 2 8 3v2l5 2 6 4 7 6 12 9 3 3 4 2v2l4 2 10 11 1 4-4 7 1 8 6 7 2 5-1 5h-4v-2l-5-2-11-10-8-7-16-13-8-6-13-11-6-7 11 1 10 4 11 7 10 5 6 5 2 1-3-5-13-13-8-7-5-8h-3l-1 3h-15l-5-2v-2l-10-2-20-8-19-7-6-1 3 5v2h2v2h2l4 5v2h2l3 4 2 7 6 12 18 11 8 7 5 3 14 14 3 5-1 7-2 3-4-1-4-6-5-5-8-9v-2l-3-1-8-10-5-1-2 5-1 1 11 8 9 8 10 10v2l4 2 1 4-2 4-5-1-14-12-12-11-6-7-6-5-5-5-8-5-15-7-15-6-11-4-1 1 4 5v2l3 1 7 10 1 4h2l6 13v3l4 1v2l5 2 9 6 8 5 7 8 4 4-5-2-13-10-6-2-7-1-2 1-2-1 4 8-1 7-2 2-8-1-7-5v-2l-4-2-10-3-9-3-8-3 8 16 4 6 4 4 5 9-1 8-1 2h-5l-14-9-9-7-15-10-23-13-18-10-15-8-5-2v-3l12-6h2l1-6 1-5 8-7 4-4h2l2-4 8-6 1-2 5 2 11 14 8 10 7 8 6 3 19 5 12 3-4-4-3-5-8-10-9-11-10-10-8-5-3-3v-2l-4-2v-5l4-2 1-4 4-2 1-2h7l10 6 14 4 21 5 13 4v-2h-2l-2-4-18-18-4-3v-2l-5-1-5-2 3-1 1-3 11-6 6-2 16 1 26 5h3l-4-7 2-4v-2z" fill="#F4DA71"/>
<path transform="translate(806,208)" d="m0 0 5 5 6 7 6 11-1 6 3-1 2 3v10l-7 16-9 13-1 3-2 1-3 6-5 5-7 9-12 13-3 2-3 7h15l-2 2-9 1h-10l-8-2v-2l-9 4-2 2-8 2-7 6-4 5-1 1v3l-5 1-9 5-6 5-8 4h-2l-1 3-5 4h-4v2l-4 1v2h-2v2l-11 5h-5v2l-9 6h-2v2l7-4 5-2h3v3l2-1-1-2v-3l7-2 4-3 12-1h2v-2l8-5-1 4-5 5-10 5-19 10-20 10v-4h-2l1-3 4-3h2v-2l-6 2h-3-3v-5h-2l-1-5h-3l-2-6 2-3h-3l-2 10 1 8v3l2 1-4 5-10 4-19 8-16 5-8 3v3h-2v-2l-18 7-20 7-15 5-4 1-6 2-4-2-3 3h-2v-2h-2v-3l1-1v-2l3-2-1-5 2-7h7v-3l-10 4 1 4h-4l-1 2-1-3 1-2-3-1 12-5 46-17 35-12 16-6 13-5 22-11 12-8 5-4 5-3 15-11 17-14 9-7 10-9 9-7 15-14 8-7 7-8 1-2h2v-2l5-5 4-5 1-2h2v-2h2l2-4 7-10 2-4h2l1-4 4-5 1-3 5-5 9-10z" fill="#C8CDD2"/>
<path transform="translate(1060,594)" d="m0 0h4v3h2l2 5 2 9 3 8 3 19 1 5-4 2-1 3-11 5-30 9-9 3-13 2-1 1-50 7-25 4-30 4-23 4-20 6-10 2-10 4-15 3-11 5-9 3-8 3-16 4-9 3-24 5-9 2-35 5-25 3-34 2h-110l-63-4-33-3-2-1v-2l-11-2-12-3-7-3v-2h-3l-2-3-3-2 3-5 4-2 2-4 16-10 10-4-1-3h-9v-1l8-2 8 5 14 8 10 4 4 2 10 2 21 2 22 5 4 2 9 1 2 2 32 3 10 1 2 2 4 1 26 2h22l2-26h2l1 17 2 7 1 3 40-2 9-2h11l1-3 1 1 14-1 29-5 21-4 6-2 15-3 21-6 15-5 16-5 11-6 8-3 9-3 23-6 25-5 16-3 53-9 14-2 5-1-1-14-4-28 2-1h6l3 36v5l27-4 26-5 9-3-3-10-8-28z" fill="#6E7074"/>
<path transform="translate(246,506)" d="m0 0h3l6 11 5 11 7 28 6-2 11-5h6l4 4v4l14-7 20-11 5-5v-6l1-1 10-1 2-4 3 1v5l-8 5-7 4-1 2 9-2 15-7h7l5-4 7-1 1 1 8-1 5 1 2-1 7 3h8l4 2 1 6-2 1-2 5-2 2-2 4h-2v4l2 2-19 7-15 7-1 3-6 1h-5l9 3 16 10 14 11 12 11 7 6 2 5-6-1-8-8-4-2-4-4v-2l-4-2-5-4-7-3-16-9-2-4-5-3-17-3-29-3-30-2-9-2v-3h-2v-3h-2v-2l-9 4-23 11-21 8-10 4-26 7-13 2-1 1-24 2-4 1-4-9-6-29-5-25v-6l1 4 5 2 10 2h7v1l10-1 24-7 24-8 10-4 12-4 8-3z" fill="#A8A8AA"/>
<path transform="translate(828,303)" d="m0 0h9l11 3 14 7 7 7 4 11 1 9-22 12-11 7-13 10-9 8-19-9-13-4-6-1h-24l-17 2-6 2v8l-1 4 4 1 2 4 5 2 6 5v2l4 2 4 6-16-2-14-3-16-1-10 4-7 4-2 3 8 3 19 19 5 6v2h2v2l-7-1-21-6-17-4-8-4-5-3-7-1-1 3-4 2-1 3-3 2v5l3 2v2l3 1v2l5 2 10 9 7 7 10 13 6 7v3l4 2v2l-6-1-21-5-8-3-8-7-11-14-10-13-2-2 10-9 8-7 5-5 4-3h2v-2l8-5 12-8 14-10 17-11 7-8 10-13 3-5 3-11h-3l-2 4-8 7h-3l-1 3-13 10-7 4-3 1v2l-4 1-10 1-4 3h-4l-1 2-1 1 1 4-4 1 1-4-12 5-3 1v-2l9-6h2v-2l9-3 7-2v-2h2v-2l4-1v-2l5-2 8-7 10-5 5-4 8-5 4-1-1-2 5-5 10-8 7-2 4-3 6-1v2l8 1h10l9-1 8-5 3-3 4-2 1-2 17-8z" fill="#6E7073"/>
<path transform="translate(265,558)" d="m0 0h3v2h2v3l3-1 1 4 20 2 25 2 29 3 11 3 5 5v2l5 2 14 8 5 2 1 2-10-3-5-2-6 2h-10l2 4h-3l-6-4-3-1-3 9-3 10-1 2-14 1h-13v2l4-1h13l1 3 8 1-4 1-20-2-39-2-51-2-49-4-14-2-14-4-11-7 3-2 24-2 1-1 17-3 25-7 30-12 21-10z" fill="#6E7074"/>
<path transform="translate(886,368)" d="m0 0 7 2v2l10 2 4-1 12 5 2 1v4l5 2 7 4v3l3 1 2 3 6 3v2l5 2 4 2v2l10 3 8 4 5 2 9 4v2l5-1 5 3 10 2-1 5-12 12-13 9-10 7h-2v2l-7 4-5 3-1 2-5 2-2 3-9 1 1-5v-3l2-3-2-3v-3l-5 2-7-7-6-2-1-3-11-7-10-9-13-11-14-11-14-10-11-7 1-2 2-1 5-5 1-2-3-3 5-1 1-3 3-2 4 3 2-2 3 1 1-2 2 3 7 2v-4l3-2z" fill="#6E6F73"/>
<path transform="translate(996,441)" d="m0 0h2l-1 6-11 11-5 4h-2l-1 3-11 9-15 13h-2v2l-5 3-3 3-8 7-11 9-12 11-8 7-14 12-17 13-10 8h-3v2l-5 3h-3v2l-5 2h-8l-10-6-6-4-4-6-4-11v-3h-2l-1-8-1-23-1-4-2 1 1-4h-5l-1 5-1 2h-3l-2 6-3 1-5-6-4-2h-4v-2l-3 1-5-5v-2l-4-2v-2l-5-2-5-5-9-7v-2l-10-3-13-4-17-9-6-8-4-4-4-6 9 2 12 5 19 8 11 6 6 5v2l3 1 5 5 11 12 8 7 12 10 4 1 1-7-5-5-9-8-5-5-10-9-6-4 2-1 2-5h5l8 9 14 16v2l4 2 2 5h4l2-5-1-6-9-10-3-4 8 2 2-1v2l3-1 1 3 5 1 2 3 3 1v2h2v3l3 1 7 11 4 5 4 8 6 6v2l20-2 9-4 11-5 20-11 6-3h2v-2l12-6 5-3 21-14 4-4h3l1-3 9-6h3v-2l15-10 10-7z" fill="#21201F"/>
<path transform="translate(362,619)" d="m0 0 9 3v2l6 1 6 2v-2l4 2-1 2 5 2 5 4 9 3 4 4 9 6v2l5 1 2 3 2 1 4 4v2l4 1 7 5-1 3-5 1v-2l-4-2-5-2-8-3-1-3h-4l2 2 5 2 1 5-1 2 2 1h-4v2l4 2 8 5v2l-2 1 4 1v2l3 1-9 4-8 4-12 8-5 5-2 4 4 3v2h3l3 3 16 4 11 3v2l35 3 63 4 88 1v1l-28 1-70-1-45-2-30-2-36-4-29-6-15-5-12-5-11-6-1-3h-2l-1-5v-10l3-15 3-7 4-6h3l1-2 7-2 1-4-4-2-6-4v-2l-4-2-3-3v-2h-2l-3-8v-3l7 1 13 10 22 12v2l4 1-3-3-10-6-9-6-5-4-5-2-7-6 1-3 1 3 2-1v-2l5-1 3 1z" fill="#A9A9AB"/>
<path transform="translate(372,317)" d="m0 0 6 1 9 7 9 10 10 14 3 6 1 5v11l-4 10-4 6-7 7-9 4-12 2-35-2-82-6-42-4-17-1-7-1 1-5 10-2 5-5h-3l-1 2-2-1-16-1v-1l36-2 13-1 33-1 8-1-1-2 7-1h29l15 1v2l19-1 16-3 9-6 5-5 3-6 1-8-4-6-4-2h-1v-7z" fill="#0F0C0D"/>
<path transform="translate(431,681)" d="m0 0 14 8 9 5 10 4 4 2 10 2 21 2 22 5 4 2 9 1 2 2 32 3 10 1 2 2 4 1 26 2h22l2-26h2l1 17 1 5v9l9-1 9 1 17-1 13 1v2l-2 1-23 2h-9v2l-25 2h-92l-63-4-33-3-2-1v-2l-11-2-12-3-7-3v-2h-3l-2-3-3-2 3-5 4-2 2-4 16-10 10-4-1-3h-9v-1z" fill="#434448"/>
<path transform="translate(264,227)" d="m0 0h15l10 2 24 6 6 1v2l4-1-6 8-4 4-17-4-14-3h-15l-8 4-10 10-11 14-14 19-13 17-9 13-7 10-6 9-8 8-7 8-8 5h-2v2l-14 9-9 3h-18l-23-6-15-6-6-3-5-12-1-8 5-5 11-7 15-4 13-2h22l22 5 15 6 7 1 5-4 13-19 8-13 10-15 11-15 11-14 12-14z" fill="#E1BB44"/>
<path transform="translate(99,429)" d="m0 0 2 1v2h2l9 11 8 7 26 22 7 9v9l-5 16-2 4-1 7-2 2-3 1h8l2 1h7l6-3-4-2 19-5 23-8 29-14 16-8 18-10 39-20 20-8 11-3v2l2 1h-3l-1 2 8-2v-2l-3-2 7-1v3l5-1v2h2l-1-3 6-1 11-3 5 1 1 4-5 2h-14v3l-1 1 3 1 1 5h-4l-1 3-4 1-2-1-1 2h-3l-2-2-2 4h-3l-2 2-1-2-2 1v-4h-4l-1 8-2-1-10 5-4-2-7-1-1-2h2v-2l-4 2h-2l-1 2 2 1-4 2v-3l-5 2v3l-5-1-5 2-2 1 3 1-10 4v3h-9l-1 4-5 1-2 4v3l-11 5-15 6-13 5-12 4-1 2-8 2-1 4 1 2 6-1-2 1v3l-34 11-12 3h-7l-1-1-13-1-7-4-2-9-2-5-3-16-7-26-11-44z" fill="#545559"/>
<path transform="translate(537,270)" d="m0 0 2 1-3 7-4 5-6 9-7 10-10 16-5 6h-2l-2 5-7 9-3 7h-2v5l-2 2v2l-7 1-5 5-2 3 5 2 6 2 1-2 8 2 5 1h3l2 1v4l3-1 2 1 1-2 7 2v-2l7-1v2h5l2 2 1-5h12l4 1 4-3h4l5-2h4v-2l7-2 1 2 6-3h5l4-3h3l5 1 2-2v3l2 1-4 5v-2h-2v3h3v2l-4 1v2l-5 2-4-1h-4l2 3 2-1 2 3 8-1-1-2h6l2-3h2l12-3v4l4-1 1-1 7-3 1 1 2-3 4 1 1-2 2 1 1-2 8-1h5l-4 4-12 7-12 5-11 5-15 6-26 8-10 2v-2l-6 1-2-1-1 3-2-2h-4l1-7v3l-3 2-10 2-4 1h-5l-4-1v-3l-6-1v-2h5l2-1 1 2 3-1 2-3h2l2 4 1-5-1-3-2-1 4-3 2-4-10 3-15 5-8 3-9 3-7-1-7 1 2-1-1-2h-6l-1 2-2-3h-2v1l-8 1-2-2 3-1-2-2-3 2-1-5h2v-2l-5 1-4-3-1-3 2-1-3-2v-2l-7 1v-2l10-2 1-4 3 1 1-5 6-10 2 2 2-5 2-4h3l-1-2h2v-2l2-1v-4l4-2 1-2 1-3 2-1-2-2 3-7 3-5 4-4v-2l1-1 4-5 5-1-1-3 4-1v-2h2v-8h1l1 16h6l-1 4h2l2-4 12-14 10-14z" fill="#56575B"/>
<path transform="translate(635,373)" d="m0 0h3l-1 4 1 5h3l1 5h2v5l6-2v2l6-2v2l-6 4-1 2h2v4l-18 11-19 9-8 1-4 1-16 8-16 9-11 5-5 2-2-2-7 1-5 3h-5l-2 4-17 9-30 10-4 3-27 9-33 10-15 6-16 6-17 8-14 7-9 5h-2l-1-4-3 1-3 3h-8l2-2 4-2 11-5h2v-3l7-2 3-1v-2h3l-1-2 6-2v-3h7l1-2h4l2-2 3-1 2 1v-2h2l1-2 6-2 2-1v2l4-3 8-4h-1l-6-1 2-2 10-4h6 1l1-3 9-2 3 3v3l3-2 1-4h4l1-3-3-1 9-3 6-3 5-1-4 4h1l6-1 2-2 1 1 2-5 4-3h2v2h2v-2l10-2 7-3 2-7 11 1 4-1 1-4 6-3 9-2 21-7 24-9h2v2h2l-1-3 12-5 18-6 16-7 9-4 2-3-2-6-1-9z" fill="#A4A4A6"/>
<path transform="translate(346,522)" d="m0 0 3 1v5l-8 5-7 4-1 2 9-2 15-7h7l5-4 7-1 1 1 8-1 5 1 2-1 7 3h8l4 2 1 6-2 1-2 5-2 2-2 4h-2v4l2 2-19 7-15 7-1 3-6 1h-5l9 3 16 10 14 11 12 11 7 6 2 5-6-1-8-8-4-2-4-4v-2l-4-2-5-4-7-3-16-9-2-4-5-3-17-3-29-3-30-2-9-2 2-5h-2l1-5 12-6 5-1 4 4v4l14-7 20-11 5-5v-6l1-1 10-1z" fill="#C8CDD2"/>
<path transform="translate(710,466)" d="m0 0 4 1 14 7 16 5 5 2-3 1-6-1 3 2v3h2v2h2l2 3 7 3 6 8h2l1 7 6 5 2 4h3l1 3 4 5 5 5 5 4 2 4 5 5 3 6v13l-3 6-6 5-9 3-2 2h-6l5-5 4-1-1-3-3-3-7-10v-2l-4-2-1-3-3-1-1-4 5 2 1 4h2l5 6 6 4h2l1-6-3-7-9-8-5-8-5 1-10 6-9 7h-2l2 6-5-2-3-2v-2l-4-1-5-3v-2l-3 1v-3l-5-1-4-4v-2l-10-4-13-1-2-4-5-5-9-16v-3l6 1 6 3 13 3 6 4 5 5 6 2 5-1 1-7-3-5v-3l9-1 8 3 13 10 3 1-8-7-5-5-7-4-9-6-2-1v-2l-4-1-5-12-1-4h-2z" fill="#58595C"/>
<path transform="translate(876,356)" d="m0 0 9 1 12 6 10 4 13 7 10 4 15 7 25 13 15 6 9 3 10 2h20l10-4 10-8 8-9 8-12 3-5 2 1 4 20v8l-3 8-4 6-10 10-5 4-4-1-7 2-4-1-8 2h-10l-7-1-7 8-1 7-1-3-5 1 6-7 5-6v-2l-10-2-4-3h-5l-1-2-10-3-1-2-5-1-5-3-10-4v-2l-4-1-5-3v-2l-6-2-5-5v-3l-6-2-6-4v-4l-7-2-9-3-3 1-9-3v-2l-7-1-2 6-2 2-1 4-1-2-3 1-6-3-5 2-5-3-5 5-2 1 3 3-6 6-1 2-6-1-11-7 2-4 5-5 4-2 1-2h2v-2l11-7 14-6z" fill="#555559"/>
<path transform="translate(122,529)" d="m0 0 1 4 5 2 10 2h7v1l23-1 7-3h5l2 2v5h2l5 19 7 20v4l2 2-7 3-18 4-7 1-1 1-24 2-4 1-4-9-6-29-5-25z" fill="#B4B4B2"/>
<path transform="translate(1009,330)" d="m0 0h25l14 3 6 3 5 6 3 11 2 18-5 8-8 11-9 10-8 6-10 4h-18l1-2h12l4-4 1-2-4-2 4-4 1-5h2l1-6-1-4-2-12-1-1v-5l-2-1-5-7v-3h-2l-2-6-4 1-1-3h-2v-2l-4 1-4-1-9 3-9 4h-2l-6 3-2-1v2l-9 7-3 3-6 1-2 4-4 6-2 2-9-1-1-3 5-3 11-12 16-12 14-8 17-5z" fill="#F5DC72"/>
<path transform="translate(634,371)" d="m0 0 2 1-3 8 1 11v3l2 1-4 5-10 4-19 8-16 5-8 3v3h-2v-2l-18 7-20 7-15 5-4 1-6 2-4-2-3 3h-2v-2h-2v-3l1-1v-2l3-2-1-5 2-7h7v-3l-10 4 1 4h-4l-1 2-1-3 1-2-3-1 12-5 46-17 35-12 16-6 13-5 10-5z" fill="#C9CED2"/>
<path transform="translate(268,180)" d="m0 0h10l17 3 2 1 15 2-1 6 1 10 9 6 16 8 5 4-13 13-5 4-5 1v-2l-9-1-21-5-10-2-14-1-6-3-3-4-1-5v-11l2-9 4-9z" fill="#6F7174"/>
<path transform="translate(1e3 606)" d="m0 0h6l3 36v5l27-4 26-5 10-1v3l-3 2v2l-16 6h-4v2l-9 4-17 3-15 3-13 3-25 5-20 3-32 5-32 4-24 5h-9l-16 4-3-1 1-2 7-3 8-4 8-3 9-3 23-6 25-5 16-3 53-9 14-2 5-1-1-14-4-28z" fill="#120F10"/>
<path transform="translate(734,379)" d="m0 0 3 1 2 4 5 2 6 5v2l4 2 4 6-16-2-14-3-16-1-10 4-7 4-2 3 8 3 19 19 5 6v2h2v2l-7-1-21-6-17-4-8-4-5-3-7-1-1 3-4 2-1 3-3 2v5l3 2v2l3 1v2l5 2 10 9 7 7 10 13 6 7v3l4 2v2l-6-1-21-5-8-3-8-7-11-14-10-13-2-2 10-9 8-7 5-5 4-3h2v-2l8-5 12-8 11-8 1 2 10-5h5l1-4 3-4 6 2 3 2 5-1 6-2z" fill="#7D7A73"/>
<path transform="translate(450,694)" d="m0 0 8 1 10 5 10 2 21 2 22 5 4 2 9 1 2 2 32 3 10 1 4 6 10 4 10 1h12l10 1 14-1v3h-2v2l-21 1-31 1-24-1h-17l-17-2-4-1-5 1-16-4v-2l-5 1-4-1-12-2-5-3-10-4-6-3-4-7-4-10z" fill="#100D0E"/>
<path transform="translate(774,376)" d="m0 0 12 3 7 6 5 2 8 1 3 4 10 1h3l7 2 6 3 1-1v-2l5 1 6-1 6 2 11 7 13 10 10 8 15 13 8 7 10 6 1 4 6 1 7 7-2 4-6 7-7 6-4 5-2-1-4-4v-2l-3-1-3-5-8-10-3-3v-2h-2l-3-5-5-5v-2l-4-2-5-5-8-7-11-7-10-7-14-8-10-6-4-2h-5l-2 2-7-1-11-9-6-2-7-1 1-4-3-1v-3l-3 1-1-3z" fill="#A0823D"/>
<path transform="translate(365,657)" d="m0 0 6 1 35 18 7 3v2l2 1-6 4h-6l-11 5-6 5-4 1-3 7h2l1 3-3 6 4 2 11 3v2l5 1 14 4-1 2 19 3v1h-11l-26-5-15-4-16-6-16-8-1-3h-2l-1-5v-10l3-15 3-7 4-6h3l1-2 7-2z" fill="#C8CDD2"/>
<path transform="translate(632,552)" d="m0 0h6l1 4-2 1-1 3 9-2 9 5v3l7 2 2 2-5 1h6l2 5-2 3-1-3h-8v2l-3-1v-2h-5l-3-4v-2l-2-1 1 5-3 1-4-1h-3l-5 2 1 4 2 1-4 3-5-1-1-4-3-1-2 5h-8l-1 1h-11l-7 1-2-1-2 2v-2l-5 2h-7l-2 2-1-2-6 2-2-1-1 2-4 1h-3-6l-2-2-3 3-8-2h-3l-2 2-9-1-2-1-1 2v-2l-4-1-5-4-3 4-1 2h-6l-1-1h-3l-2 1-10-1h-3l1-1-2-1-1 3-5-1-6-5-4 1v-3l-3 2-5-1v-2l-4 1-1 2-2-1-1-5 4-1 2-2v2l4 2 4-1 5 3-1-6 4 1 1-3 2 4h2l1 2h2l-2-1 1-3h6l1 2-1 1h7l2-1 7 1 1-2h5l1 1 1-2-2-1 2-1 2 1v-2l6 1 5-1 4 3 2-1 3-1v2l9 1 8-2 5-1 5 1v2l5-1h3 9l4 1 4-1 1-3h2v5l3-1 2 1v-2h3l1-2 5-3 1-3h6l5-2 5 2v-2l7-1 3-3h6l2-7z" fill="#7C7A76"/>
<path transform="translate(763,198)" d="m0 0h28l7 2-2 2h-5l1 4-7 1v2l-4 2v3h-3l-1-4-7-2-1 3-8 3h-10l-15 1-2-1-19 5-6 2-8 3h-5l-1 2-10 2-1 3h-3l-11 5-12 4-3 2h-3v2l-10 4-10 1-7 2-20 4-5-2-3 2-1 2h-4v-2l-3-1-5 4-5-3-2 2h-4v-2l-4-1-1-3 2-3-3-2h2l-1-1-7-1-1 4-2-1 2-4 3-1 1-2v2l24-2 17-3 15-2 23-4 11-3 11-2 9-3 13-3 21-7 12-3 9-3 17-5 15-3z" fill="#96979A"/>
<path transform="translate(265,558)" d="m0 0h3v2h2v3l3-1v2l-9 4h-3v2l-7 3-3 2v23l-11 2-5-1-9 1-1 2-12 4-1 3-2 1v2h-23l-20-2-15-4-8-4-6-4 3-2 24-2 1-1 17-3 25-7 30-12 21-10z" fill="#120F10"/>
<path transform="translate(400,598)" d="m0 0 4 2 7 2 3 3 4 2 4 4 8 5 3 2 5 3 3 1 1 2 6 1 3 3 5 1v2l12 3 5 2 4-1 1 2 11 3 7 1 5 3 1-2h2l1 2h7v2h7l8 2 26 3 6 1 6-1 1 2 2-1 11 3h2 3v2h5l2 2v3l5-1 1-3 7 1 1 3h3l1-2 2 2 11 1h28 3l2 3-5 2-22 2h-12l-5-1-3 1-4-2-9 1-6-1h-14l-1-1h-8l-5-1-4-1-4 3-2-2-15-2-12-2h-4l-2-2-16-5-16-4-11-4-13-4-23-10-10-6-15-15-8-7z" fill="#545559"/>
<path transform="translate(99,429)" d="m0 0 2 1v2h2l9 11 8 7 26 22 7 9v9l-5 16-2 4-1 7-7 2-4 1h-13l-1 3-4-20-7-26-11-44z" fill="#B69436"/>
<path transform="translate(1e3 354)" d="m0 0 5 1 4 1 6 9 3 7 3 10v9l-2 7-2 2-9 2-2 2h-12l-1 2-6 1-11-5-16-7 2-4v-3h-2v-3l-2-1-1-8 6-7 3-1 5-5h4v-2l16-4 7-2z" fill="#D6AC3B"/>
<path transform="translate(998,341)" d="m0 0 8 1v2h2l1 2 2-2v2h2l2 3v3h2l3 6 4 5 4 16v5l1 4-2 3h-2v5l-4 4 4 2-3 5-3 2h-12l-3 1-13-3-1-2 3-1 8-1h7l1-2 10-2 2-2 1-6v-9l-4-12-4-8-5-5-5-2-5 1h-5l-1 2-12 3h-4v2l-7 3-10 10 1 8 4 4v2l2 1-3 2-4 1-21-11-9-4-12-5-17-9-7-3-12-5-10 1-16 7-1-3 8-6 8-4h5l1-5 2-2 5 1 24 13 15 8 14 6 2 2 5 1 1-3 7-9 5-2h3l2-4 6-5h2v-2l4-1 6-3h3l10-5z" fill="#E5BE42"/>
<path transform="translate(363,265)" d="m0 0 7 5 1 6 5-2 4-3h3l-2 5-5 8-11 19-4 7-5 10-6 16-4 21-2 2h-29l3-7 8-17 7-9h11l-9-3-3-3 2-14h2l2-2v2l4-1 1-6 2-1v4l4-10 6-9 5-7z" fill="#B59436"/>
<path transform="translate(738,415)" d="m0 0 10 1 22 9 18 6v2l5 1h15v-3l5 1 7 10 13 12 8 8v3l-5-2-5-4-16-9-9-5-9-2h-5l9 9 10 8 14 11 11 9 12 11 9 11 5 4 3 3v2l-7 3h-8l-3-2-1-6h-2l-3-6v-2h-2v-2l-3 1-1-5-5-1 2-1v-2l-3 1v-3l-3-1-2-1v-2l-3-1 1-1-1-2v-6l-5-5-8-6-2-1-1 2-2-1v-2h-2l-1 2v-3l-4-1v-2h-4v-3l-6-1v-2l-5-2-9-5-3 1 2 2v3l-4 1-4-4v-2l-4-2-10-10v-4l-4-2-4-6v-2z" fill="#424245"/>
<path transform="translate(122,321)" d="m0 0h23l19 5 3 1 2 5 5 6-4 6-12 8-9 5-4 1h-11l-9-4-14-9-9-7-8-6 1-5 4-2 10-2 2-1z" fill="#D7AC3A"/>
<path transform="translate(759,323)" d="m0 0h2l-2 4-3 1 2 5-2 3-1 5 5-3h2v-2l5-4h5v2h7v7l-12 10-2 1-1 3h-2l-1 6-24 5-3 2v11l2 2-1 4-7 3-6-1-5-3-3 1-2 3v4h-6l-8 4h-2v-3l18-11 9-10 10-14 3-7 2-7h-3l-2 4-8 7h-3l-1 3-13 10-7 4-3 1v2l-4 1-10 1-4 3h-4l-1 2-1 1 1 4-4 1 1-4-12 5-3 1v-2l9-6h2v-2l9-3 7-2v-2h2v-2l4-1v-2l5-2 8-7 10-5 5-4 8-5 4-1-1-2 5-5 10-8 7-2 4-3z" fill="#444345"/>
<path transform="translate(1063,371)" d="m0 0 2 1 4 20v6h-2l-4 8-5 2h-4l-1 3-5 4-9 3-8 3-12 2-10 1-9-1-6-3-3-2-9-3-7-4-10-4h-3l-1-2-10-5v-2l-5-1-4-3-4-1-3-5h2l-3-5-6-3 3-1 16 7 23 12 15 6 9 3 10 2h20l10-4 10-8 8-9 8-12z" fill="#414245"/>
<path transform="translate(677,498)" d="m0 0 6 1 6 3 13 3 5 4 3 7 11 12 9 9 3 2v2h2l1 2h5l7-8 6-5h2v-4l7-1h7l3 2 8 1v4l3-1 4 5 2 1v2l5 1 6 10v13l-3 6-6 5-9 3-2 2h-6l5-5 4-1-1-3-3-3-7-10v-2l-4-2-1-3-3-1-1-4 5 2 1 4h2l5 6 6 4h2l1-6-3-7-9-8-5-8-5 1-10 6-9 7h-2l2 6-5-2-3-2v-2l-4-1-5-3v-2l-3 1v-3l-5-1-4-4v-2l-10-4-13-1-2-4-5-5-9-16z" fill="#444549"/>
<path transform="translate(776,387)" d="m0 0h9l9 4 8 7 7 1 2-2 7 1 11 6 13 8 11 7 10 7 6 4 7 6 4 5 4 4 6 7v2h2l1 4 4 2 8 10 2 4 7 6h2l5-6h2l1-3 5-4 7-8 2 1-1 4-6 10-3 4-5 1-8 5-4-1-7-5-3-4v-3l-5-2-8-11-9-9v-2l-4-2-4-5-6-3-2 1-4-4h-5l-3-3-3-1v-3l-6-2-1-2-4-1-6-6-13-5-5 2-4 1-1 2 1 1v2h-6l-4-5v-2l-4-1-7-2-4-5v-2l-3-1-4-7-2-1v-5z" fill="#434345"/>
<path transform="translate(537,270)" d="m0 0 2 1-3 7-4 5-6 9-7 10-10 16-5 6h-2l-2 5-7 9-3 7h-2v5l-2 2v2l-7 1-4 3h-3v2l-3 3-3 2-2-1-1-5-3-2-3 2v-6l3-5 2 2 2-5 2-4h3l-1-2h2v-2l2-1v-4l4-2 1-2 1-3 2-1-2-2 3-7 3-5 4-4v-2l1-1 4-5 5-1-1-3 4-1v-2h2v-8h1l1 16h6l-1 4h2l2-4 12-14 10-14z" fill="#6C6E71"/>
<path transform="translate(795,416)" d="m0 0h2l1 2 8 3v2l5 2 6 4 7 6 12 9 3 3 4 2v2l4 2 10 11 1 4-4 7 1 8 6 7 2 5-1 5h-4v-2l-5-2-11-10-8-7-16-13-8-6-13-11-6-7 11 1 10 4 11 7 10 5 6 5 2 1-3-5-13-13-8-7-5-8h-3l-1 3h-7v-1l5-1-2-4-4-5v-2l-4-2z" fill="#A2833C"/>
<path transform="translate(695,447)" d="m0 0 9 2 12 5 19 8 11 6 6 5v2l3 1 5 5 11 12 8 7 12 10 4 1 1-7-5-5-9-8-5-5-10-9-6-4 2-1 2-5h5l8 9 14 16v2l4 2 2 5h4l2-5-1-6-9-10-3-4 8 2 2-1v2l3-1 1 3 5 1 2 3 3 1v2h2v3l3 1 7 11 4 5 3 6-1 2-12-16-10-9-5-2 1 3 4 3v15l-2-4-2 1 1-4h-5l-1 5-1 2h-3l-2 6-3 1-5-6-4-2h-4v-2l-3 1-5-5v-2l-4-2v-2l-5-2-5-5-9-7v-2l-10-3-13-4-17-9-6-8-4-4z" fill="#474646"/>
<path transform="translate(476,458)" d="m0 0h2v2l4-1-2 4v10l2 1v2l-27 9-33 10-15 6-16 6-17 8-14 7-9 5h-2l-1-4-3 1-3 3h-8l2-2 4-2 11-5h2v-3l7-2 3-1v-2h3l-1-2 6-2v-3h7l1-2h4l2-2 3-1 2 1v-2h2l1-2 6-2 2-1v2l4-3 8-4h-1l-6-1 2-2 10-4h6 1l1-3 9-2 3 3v3l3-2 1-4h4l1-3-3-1 9-3 6-3 5-1-4 4h1l6-1 2-2 1 1 2-5z" fill="#939597"/>
<path transform="translate(329,255)" d="m0 0 4 1-6 7-8 14-8 16-11 24-6 16-4 10-3 13-3 3-3 1h-14l1-5 8-14 5-14 9-25 5-16 2 1 5-12 2-8 3-7 3-1 1-1 12-1z" fill="#D5AC3C"/>
<path transform="translate(457,354)" d="m0 0 1 4 3-3v3l3 1 2 4 1-1 5-2v-2h2l-2 5 5 2 6 2 1-2 8 2 5 1h3l2 1v4l3-1 2 1 1-2 7 2v-2l7-1v2h5l2 2 2-3 3 2v2l-5 3-20 7-8 3-9 3-7-1-7 1 2-1-1-2h-6l-1 2-2-3h-2v1l-8 1-2-2 3-1-2-2-3 2-1-5h2v-2l-5 1-4-3-1-3 2-1-3-2v-2l-7 1v-2l10-2 1-4 3 1 1-5z" fill="#55565A"/>
<path transform="translate(996,441)" d="m0 0h2l-1 6-11 11-5 4h-2l-1 3-11 9-15 13h-2v2l-5 3-3 3-8 7-3 2-6 2-7 5-5 5-7 5-3-1-4-6-3-1-5 1-2-3 5-5 11-6 4-1v-2l12-6 5-3 21-14 4-4h3l1-3 9-6h3v-2l15-10 10-7z" fill="#100E0F"/>
<path transform="translate(413,680)" d="m0 0 6 1 5 2 9 1v2l3 1-9 4-8 4-12 8-5 5-2 4 4 3v2h3l3 3 16 4 11 3v2l35 3 63 4 88 1v1l-28 1-70-1-45-2-30-2-19-2v-2l-15-1-6-2-1-2-9-2-6-3v-2l-7-1-5-2-3-2 2-9h-2l2-8 7-1 2-4 8-4h4l1-2h7l3-4z" fill="#A7A7A9"/>
<path transform="translate(117,320)" d="m0 0h22v1l-28 2-4 2-10 2-2 5 9 7 17 12 8 4 5 2h11l10-4 15-10 4 2 1 2-4 1-1 3-5 5h-2v2l-10 6-8 3-2 1h-12l-20-6-7-3-7-2-1-2-5-2v-2l-9-2-4-2-1 4-2-2-2-7 1-6 11-8 10-4 14-3z" fill="#F5DC72"/>
<path transform="translate(760,325)" d="m0 0 21 2 19 2 19 7 5 4-1 3-11 5-8 4-2 3h-7l-3 2h-3l-1 4 1 1h6v3l-8-1-6-1h-31v-1l11-1 1-6h2l1-4 8-6 5-4 1-7-4 1-3-1v-2l-6 2-4 2v2l-5 3h-2l1-7v-3-3z" fill="#BFA03D"/>
<path transform="translate(257,570)" d="m0 0 2 1-3 1 1 4 2 1v3l-5-1-2-1 1 5 5 3 4 4v3l9 2 3 1 1 4 4-2 1 5 2-1v3l5 2 2 3-3 1 2 3 15 2v1h-26l-51-2-28-2v-1h12l-1-3 3-2 3-3 7-2 2 1 1-3 11-2 5 1 5-1h5l-1-2v-21z" fill="#404044"/>
<path transform="translate(667,413)" d="m0 0 5 1 1 5v3l-4-2-7-1-1 3-4 2-1 3-3 2v5l3 2v2l3 1v2l5 2 10 9 7 7 10 13 6 7v3l4 2v2l-6-1-21-5-8-3-8-7-11-14-10-13-2-2 10-9 8-7 5-5 4-3h2v-2z" fill="#7C7A76"/>
<path transform="translate(450,694)" d="m0 0 8 1 10 5 10 2 21 2v1h-19l1 7 4 4 6 2 2 2 7 2 14 3 7 1 19 2 1 2h29l10 1 4-1-4-3-2-8 4 4 4 3 6 2 10 1h12l10 1 14-1v3h-2v2l-21 1-31 1-24-1h-17l-17-2-4-1-5 1-16-4v-2l-5 1-4-1-12-2-5-3-10-4-6-3-4-7-4-10z" fill="#222120"/>
<path transform="translate(774,376)" d="m0 0 12 3 7 6 5 2 8 1 3 4 10 1h3l7 2 6 3 1-1v-2l5 1 6-1 6 2 11 7 13 10 10 8 15 13 2 3-3 1v-2l-6-2-9-1-10-5-12-7-5-2-9-14-6-5h-1l4 4v2l3 1 3 7h-2v2l-4-1-17-10-10-6-4-2h-5l-2 2-7-1-11-9-6-2-7-1 1-4-3-1v-3l-3 1-1-3z" fill="#D7AF40"/>
<path transform="translate(244,523)" d="m0 0 4 1 2 7h3 2l7 20 2 7-9 6-19 9-21 8-12 3h-3l-1-2v-8l5-2 4-2 1-5-3 1-3-5-4-2-3-6-1-5-2-5 1-5h5l2 2 4 1 2 5 1 5 5 3-1 9v3 3h3l1-2 7-1 4-3 6-1v2l9-2h2l2-4 2-3-2-1h2v-10l-2-1-4-5-2-3-2-8z" fill="#B4B4B2"/>
<path transform="translate(795,279)" d="m0 0 1 2-3 11-3 9 6-4-2 4-7 7-6 7-3 2-3 7h15l-2 2-9 1h-10l-8-2v-2l-9 4-2 2-8 2-7 6-4 5-1 1v3l-5 1-9 5-6 5-8 4h-2l-1 3-5 4h-4v2l-3 1v-2h2l-3-13h3l-3-5v-5l4 1 2 2v7l1 4h4l-2-5 5 1v3l8-5 8-6 4-1 11-8 3-6-3-1 1-6 2-1v-5l-3-4 1-2 4 3 3 6h3l6-2 6-3 5-4 3-1 7-8 5-4 2-3h2l5-10 4-3h3l1-2 2 1z" fill="#A7A7A9"/>
<path transform="translate(873,340)" d="m0 0 4 2 4 3-4 3-1 4-9 3-11 7-1 4-6 4h-2v2h-2l-1 3-4 2-5 5-1 3 3 3h-6-2l-4 1-10-1-7-1v-3h-2l-5-5v-6l-5-3-13-5-5-1v-1h9l16 5 16 8 11-10 14-10 21-12z" fill="#F4DB72"/>
<path transform="translate(644,402)" d="m0 0h3l-2 4-12 7-19 9-8 1-4 1-16 8-16 9-11 5-5 2-2-2-7 1-5 3h-5l-2 4-17 9-22 7-3-1 6-2v-3l-3-1v-2l-5 1 1-2 9-2h6l-1-4 12-1v-2l-3-1 1-2 4-1-1 4h4v-8h1l2 6 5-1 15-7 16-5 8-4 13-7 6-2 10-4 18-5 6-2 14-7 6-1z" fill="#6F7174"/>
<path transform="translate(1078,459)" d="m0 0 2 3 3 14 4 33 2 25v7l-7-2v-2l-5-2-8-7v-3h-2l-2-4v-11l2-12 6-21z" fill="#E4BD41"/>
<path transform="translate(831,424)" d="m0 0 4 3v2l4 2v3h2l1 2 3 1v2l3 1 4 5 6 4 2 2 4 2 5 4v2h2v2h2l4 4v2h2v2h3l7 8 7 6 2 2v5l-8 4-6 5h-2l-7-14-11-13-6-7-4-5-8-7-4-4-5-3-2-4-8-8 3-1-1-3-3-1 2-4z" fill="#424346"/>
<path transform="translate(312,184)" d="m0 0h10l19 6 17 6 10 5v1l-7 2-11 9-6 6-6-1-10-6-14-7-3-3-1-11 2-5-4-1z" fill="#DDC269"/>
<path transform="translate(400,598)" d="m0 0 4 2 7 2 3 3 4 2 4 4 8 5 3 2 5 3 3 1 1 2 6 1 3 3 5 1v2l12 3 5 2 4-1 1 2 11 3 7 1 4 3v2l11 1v2h10l6 1v4l6 1-2 1-1 2-6-1v-2l-4 1h-8v-2l-5 1-10-1-17-5-18-6-23-10-10-6-15-15-8-7z" fill="#424347"/>
<path transform="translate(1067,640)" d="m0 0 2 1v3l-16 6h-4v2l-9 4-17 3-15 3-13 3-25 5-20 3-32 5-32 4-24 5h-9l-16 4-3-1 1-2 7-3 8-4 8-3 9-3 23-6 10-2h5l-2 2 11 1 2 2-4 2-4 1 32-3 27-5 23-5 25-4 22-6 16-7 8-3z" fill="#424347"/>
<path transform="translate(343,628)" d="m0 0 7 1 13 10 22 12v2l9 3 21 13 11 8 5 3v2l-2 1h-8l-21-9-35-18v-2l-4-2-6-4v-2l-4-2-3-3v-2h-2l-3-8z" fill="#B59438"/>
<path transform="translate(766,531)" d="m0 0 4 1 6 9 8 7 3 7-2 7-5-2-8-7v-2h-2l-2-4h-3l6 7 4 4 6 9v2l3 1v3l-11 4-5-3-1-3h-2l-4-4v-2h-2l-4-5-6-4-5-5-1-5 10-7 9-6z" fill="#A3843B"/>
<path transform="translate(431,681)" d="m0 0 11 6-4 5-4 4-3 9-2 4 2 5 2 6 5 1 2 1v2h7l12 3v2l12 1 17 2v1h-16l-33-3-2-1v-2l-11-2-12-3-7-3v-2h-3l-2-3-3-2 3-5 4-2 2-4 16-10 10-4-1-3h-9v-1z" fill="#7C7A76"/>
<path transform="translate(361,309)" d="m0 0 1 4 2-4 2 3-1 2 1 3-9 29-3 11-4 3-19 1-18-1-1-7-3 6-10 1-2-1 9-13 12-13 7-10 6-9h1l2 7 5 3 11 1-1 2h-16l-7 10-8 17-2 4h28l2-6 4-19 5-13 5-10z" fill="#21201F"/>
<path transform="translate(1007,369)" d="m0 0 8 1 4 7 2 4 1 7-2 9-2 2h-17l-3-1-8-2-15-6-2-2 1-4 5-5h3v-2l11-1 6-1 4 1v-3h2v-3z" fill="#B79536"/>
<path transform="translate(501,269)" d="m0 0h2v21l-4-1-4 2-4 4h-2v-2l-4 1v3h-3v4h-4l1-5 2-6-5 5-3 1-2 4-10 13-8 14-11 17-5-1-3-3-1 2 1-4 12-20 8-12 11-12 5-3 5-2 14-11z" fill="#424244"/>
<path transform="translate(926,504)" d="m0 0 4 1-15 13-14 13-11 9-7 6h-5l-6 5-2-1 3-5 3-6 3-1 1-7 1-2h-13l-8-1-1-4 5-3 12-6 7-3 7-4 2 1-2 3 2 1 5-1 5 5 1 3 5-1 8-6 5-5z" fill="#171819"/>
<path transform="translate(281,365)" d="m0 0h29l15 1v2h17v1l-25 3-28 2-4 1-25 2-21 1-24 2-3 1h-13l5-4 3-3h-3l-1 2-2-1-16-1v-1l36-2 13-1 33-1 8-1-1-2z" fill="#262728"/>
<path transform="translate(479,290)" d="m0 0h2l-1 6-8 21-8 17-10 16-9 14-3 1h-8l-1-1 1-7 14-24 11-18 10-14 4-5 5-5z" fill="#D5AB3D"/>
<path transform="translate(124,450)" d="m0 0h8l4 3v2l10 1 7 5 6 10 4 8 2 5-2 25-1 4-5 3-6 2h-6v-8l5-12 2-8v-9l-8-10-14-12-4-3-1-4z" fill="#28292B"/>
<path transform="translate(511,419)" d="m0 0h4v3l-7 2-1 2 2 1-2 1 1 2h-2l1 3 2 2-5 1 3 2-4 1v3h2v2l4-1 1-3 4 2v4l-6 2-9-2-1 7-8 4-7-1-1-1-2-3 1-1-3-1v2h-6l1-4h3l-1-1h-3l-2 2-1-3h2l-1-2-7 3v-2l9-5 1-5 2 1v3h2l-1-4 3-1-1-3-6 1 4-3 20-6h6l1 2-2 2h5l-1-4-2-1z" fill="#B6B7B6"/>
<path transform="translate(791,409)" d="m0 0 8 3 4 6 6 1v-2l-3 1v-2l2-2 1-2h6l4-2 13 6 5 4v2h5l4 4 2 1v3h5l2 3 5 1 2-1 2 3 7 3 6 7 14 14 3 4v2l-4-1-4-5-3-2-2-3-7-6v-2h-3l-5-5-4-2v-2h-5v-2h-6v-2h-2l-2-2-4 2 4 3 5 4 5 6 4 4-2 1-5-5-3-2-4-5-2-1v-2l-4-1v-2l-4 1 1-4-5-5h-4l-2 3 4 4-2 2 7 6-2 2-15-11-6-5-7-4v-2l-9-3v-2l-4-1-3-5z" fill="#545559"/>
<path transform="translate(374,591)" d="m0 0 18 7 4 3v2l4 2 1 2 5 3 4 6 10 9-2 5-5-1-15-6-15-9-17-10-7-5-1-5 8-1 5-1z" fill="#434448"/>
<path transform="translate(352,321)" d="m0 0h3l-3 9-4 16-2 11-2 2h-29l3-7 8-17 7-9h16l-1-2z" fill="#9E803C"/>
<path transform="translate(634,697)" d="m0 0h2l1 17 1 5v9l9-1 9 1 17-1 13 1v2l-2 1-23 2h-9v2l-25 2h-92v-1l53-1 27-1 16-1 5 1v-2l2-2-15 1-11-1h-10l-14-2-7-3-1-4 30 2h22z" fill="#515356"/>
<path transform="translate(1060,594)" d="m0 0h4v3h2l2 5 2 9 3 8 3 19 1 5-4 2-1 3-11 5-30 9-9 3-13 2-1 1-23 2-53 7-24 4h-6l2-2 27-4 39-6 15-3 21-4 11-3 18-3 10-3 4-1v-2l18-6h2l-1-3 4-3h-6l3-2 2-1-3-10-8-28z" fill="#6D6F73"/>
<path transform="translate(677,498)" d="m0 0 6 1 6 3 13 3 5 4 3 7 11 12 9 9 3 2v2h2l1 2h5l7-8 7-5-2 4-3 3h-2v2l-3 2-1 3 2 1-3 1 2 6-5-2-3-2v-2l-4-1-5-3v-2l-3 1v-3l-5-1-4-4v-2l-10-4-13-1-2-4-5-5-9-16z" fill="#48484A"/>
<path transform="translate(824,236)" d="m0 0 3 3v10l-7 16-9 13-1 3-2 1-3 6-13 13h-2l1-8 2-3 2-9 7-16 12-20 8-8z" fill="#F5DC72"/>
<path transform="translate(292,206)" d="m0 0 20 2h9l16 8 5 4-11 11-10-1-1-2-28-5-1-4v-12z" fill="#414245"/>
<path transform="translate(99,429)" d="m0 0 2 1v2h2l9 11 8 7v2l-6 1-1 1 1 9 3 8 5 14 2 5v15l-1 5 1 8 3 2h-6l-1 3-4-20-7-26-11-44z" fill="#D6AD3F"/>
<path transform="translate(598,487)" d="m0 0 7 2 22 12 21 12 19 12 7 6 10 7-3 1-8-3-4-1 4 32 1 3v8l-1 2-7 3-2 2 1-4-1-18-5-25-4-14-8-7-15-10-22-12-12-7z" fill="#414246"/>
<path transform="translate(695,447)" d="m0 0 9 2 12 5 19 8 11 6 6 5v2l3 1 4 6 4 5-8-1-8-5-15-5-8-3-15-8-6-8-4-4z" fill="#222120"/>
<path transform="translate(185,339)" d="m0 0 1 2-5 5-7 8-8 5h-2v2l-14 9-9 3h-18l-23-6-15-6-6-3-2-4v-7h4l10 4v2l6 2v2l8 1 9 4 17 5h12l6-3 7-3 5-3h2v-2h2l2-4 6-5 4-1z" fill="#E2BA3E"/>
<path transform="translate(993,668)" d="m0 0h7v1l-48 7-19 3-30 4-23 4-20 6-10 2-10 4-4 1h-11l-10 3h-7l-5-1 2-2 9-3v-2l18-6 5 1 16-4h9l24-5 8-1h14l32-5z" fill="#7B7D80"/>
<path transform="translate(852,459)" d="m0 0 4 2 8 10 8 9 6 9 4 8v2l2 1-13 9-6 1-3-2v-2l-4-2-10-11h3l5 4 4 1v2l2-2v-5l-7-9-2-7 2-5 2-6z" fill="#675944"/>
<path transform="translate(779,336)" d="m0 0 2 4 10 1 2 1v2l7-1 5 5 4 2-5 2-2 3h-7l-3 2h-3l-1 4 1 1h6v3l-8-1-6-1h-31v-1l11-1 1-6h2l1-4 8-6 5-4z" fill="#A4853B"/>
<path transform="translate(387,363)" d="m0 0 4 1 3 4v9l-3 8h-2l-2 4h-2l-1 5-1 2 3 2-12 2-22-1v-1l9-3 4-4-3-4v-2h-2v-2l10-3 5-4 5-3z" fill="#161718"/>
<path transform="translate(123,537)" d="m0 0 3 1v4l9 1 1 3 2 1-1 2 2 1 4 6h2l2 3-1 8-3 14h-2l-1 2v11l1 3-4 1-4-9-6-29-4-19z" fill="#C8CDD2"/>
<path transform="translate(834,346)" d="m0 0 12 2 4 4-4 4-9 6-10 8-8 7-19-9-5-2v-2l5-2 3-2 13-2 15-8z" fill="#444345"/>
<path transform="translate(791,442)" d="m0 0 11 1 10 4 11 7 6 3v3h3l5 5 6 4 1 3 4 1-1 2-6 3h-3l-5-2-7-3-22-18-10-9z" fill="#B59336"/>
<path transform="translate(836,413)" d="m0 0 7 1 7 3 10 7 9 6 7 6 4 5 4 4 6 7v2h2l1 4 4 2 8 10 2 4 7 6h2l5-6h2l1-3 5-4 7-8 2 1-1 4-6 10-3 4-5 1-8 5-4-1-7-5-3-4v-3l-5-2-8-11-9-9v-2l-4-2-4-5-8-7-13-10-14-8z" fill="#1B1B1B"/>
<path transform="translate(726,508)" d="m0 0 2 2 1 5v3l6 7v4h2v-2l3-2 1-5 8 4 6 2-2 6-10 9-2 3h-5l-1-3h-2l-21-21-4-5-1-6 8 6 8 1 2-3z" fill="#A3843C"/>
<path transform="translate(973,654)" d="m0 0 4 1-3 1-4 4-4 2-13 1-13 5 3 1h8l13-3 15-3h6v1l-33 7-12 2-32 3h-9v-1l13-2 2-2-11-1-2-2h4v-2l21-4z" fill="#202021"/>
<path transform="translate(755,324)" d="m0 0 2 1-6 5-7 4-3 4h-2v8l-1-2h-3l-2 4-8 7h-3l-1 3-13 10-7 4-3 1v2l-4 1-10 1-4 3h-4l-1 2-1 1 1 4-4 1 1-4-12 5-3 1v-2l9-6h2v-2l9-3 7-2v-2h2v-2l4-1v-2l5-2 8-7 10-5 5-4 8-5 4-1-1-2 5-5 10-8 7-2z" fill="#717276"/>
<path transform="translate(429,277)" d="m0 0h2l-1 7-6 11-8 15-2 5-4 8-4 4-5-1-4-6-2-1 1-7 9-10 6-7h2l2-4 5-4 7-8z" fill="#D1A83A"/>
<path transform="translate(487,229)" d="m0 0 7 1 6 3 1 2v11l-3 5-14 10-5 3h-2v-12l1-13 4-6z" fill="#413F3F"/>
<path transform="translate(578,719)" d="m0 0 4 4 4 3 6 2 10 1h12l10 1 14-1v3h-2v2l-21 1-31 1-24-1h-17l-14-2-2-4-16-2-4-2h11l11 2 11 1 1 2h29l10 1 4-1-4-3z" fill="#1C1C1C"/>
<path transform="translate(820,469)" d="m0 0 4 1 13 11 11 10 9 11 5 4 3 3v2l-7 3h-8l-3-2-1-6h-2l-3-6v-2h-2v-2l-3 1-1-5-5-1 2-1v-2l-3 1v-3l-3-1-2-1v-2l-3-1 1-1-1-2v-6z" fill="#424346"/>
<path transform="translate(734,379)" d="m0 0 3 1 2 4 5 2 6 5v2l4 2 4 6-16-2-14-3-16-1-10 4-7 4-2 4-7-1 3-5 9-6 8-4h5l1-4 3-4 6 2 3 2 5-1 6-2z" fill="#7D7A73"/>
<path transform="translate(122,321)" d="m0 0h23l19 5 3 2h-11l-7-1h-10l-5 2-1 1-9 1-5 2-7 2-2 5-5 1-8-7-3-3 1-4 4-2 10-2 2-1z" fill="#E6BE40"/>
<path transform="translate(267,228)" d="m0 0h8l6 1-3 1v2l7 1 7 2 14 2 4 2v-2h13l-6 8-4 4-17-4-14-3h-15l-8 4-4 3-1-4 3-1 2-4 5-3 4-6 1-1z" fill="#D3AA3B"/>
<path transform="translate(729,459)" d="m0 0 10 2 1 3 6 1 12 6h5l-1 2 11 8 9 8 10 10v2l4 2 1 4-2 4-5-1-14-12-12-11-6-7-6-5-5-5-8-5-10-5z" fill="#D1A83A"/>
<path transform="translate(937,459)" d="m0 0h2l3 7-3 3v3l1 3h5l-4 4-12 8-16 9-4 1v2l-14 7-8 5-2-1 1-3h2l1-3h3l1-2 2 1v-4l-2-1h6l2-5 8-6 3-3 14-7 2 1 2-4 7-11z" fill="#515256"/>
<path transform="translate(699,535)" d="m0 0 5 5 11 10 8 7 4 3v2l4 2 14 14 6 7v2h-8l-4-1-3-4v-4l-4-2-10-10-11-9-5-6-4-8v5 3l-12-6-6-5 2-1 5 3 5 1v-2h2z" fill="#2A2A2D"/>
<path transform="translate(779,429)" d="m0 0 6 1 3 1v2l5 1h15v-3l5 1 7 10 13 12 8 8v3l-5-2-5-4-16-9-9-5-9-2h-7l-3-3-1-3-5-3z" fill="#434344"/>
<path transform="translate(244,523)" d="m0 0 4 1 2 7h3 2l7 20 2 7-9 6-6-1v-2l-4-2 3-4-2-1h2v-10l-2-1-4-5-2-3-2-8z" fill="#B2B3B1"/>
<path transform="translate(454,254)" d="m0 0h1v7l-4 2-6 8-8 10-5 2-2 5-2 1 3-12-8 7-6 7-6 5-3 4h-2l-2 4-8 9-4 1-2 3-3-1 9-10 5-7 10-10 6-5 1-3 5-3 8-6 15-13 5-4z" fill="#3D3B39"/>
<path transform="translate(795,416)" d="m0 0h2l1 2 8 3v2l5 2 6 4 7 6 12 9 3 3 4 2v2l4 2 5 5v3h-10l-2-3-5-3-6-4-12-11-5-8h-3l-1 3h-7v-1l5-1-2-4-4-5v-2l-4-2z" fill="#BA9C41"/>
<path transform="translate(406,268)" d="m0 0 2 1 3 11 7 1-1 4-9 7-5 7h-2l-2 4-10 12h-4l3-9 10-25 7-12z" fill="#C0A143"/>
<path transform="translate(537,270)" d="m0 0 2 1-3 7-4 5-6 9-7 10-10 16-5 6h-2l-2 5-7 9-3 7h-2v5l-2 2v2l-5 1-2-1v-2l3-3 7-14h2l1-5 3-5h2l3-9 8-10 12-14 8-10 8-11z" fill="#252425"/>
<path transform="translate(469,297)" d="m0 0 2 1-2 4-9 13-12 20-6 9-5-1-3-3-1 2 1-4 12-20 8-12 9-7 1 2z" fill="#232121"/>
<path transform="translate(343,628)" d="m0 0 7 1 13 10 22 12v1l-7 1-2-1 3 9-6-1-8-4v-2l-4-2-6-4v-2l-4-2-3-3v-2h-2l-3-8z" fill="#C0A244"/>
<path transform="translate(851,406)" d="m0 0 7 2 4 3v2l10 1 9 3 14 12 9 8-3 2v-2l-6-2-9-1-10-5-12-7-5-2-8-12z" fill="#BFA03C"/>
<path transform="translate(850,455)" d="m0 0 6 2 9 7 17 12 10 8 3 3-2 4-9 8h-2l-7-14-11-13-6-7-4-5-4-3z" fill="#0F0D0E"/>
<path transform="translate(453,282)" d="m0 0 2 1v5h1v9l-4 9 2 1-4 6-18 30-2-4 2-10 4-8 4-13 8-16z" fill="#CFAA43"/>
<path transform="translate(668,449)" d="m0 0 7 6 5 3 8 10 7 9 2 2v3l4 2v2l-6-1-21-5v-3l1-5-2-2v-4l4-1h3l-3-3-3-2-2 1-1-2h-3l1-2h-2v6h-3v-3l-5-1 1-3 7-1v-5z" fill="#72716E"/>
<path transform="translate(329,255)" d="m0 0 4 1-6 7-8 14-6 11-2-3 3-10-2 1v-2l-3 3-4 6h-2l-1 5h-2l-1-6 3-7 2-8 3-7 3-1 1-1 12-1z" fill="#D3A93A"/>
<path transform="translate(380,271)" d="m0 0h3l-2 5-5 8-11 19-2 4-4 1-5 4-7-1-2-4 7-8 15-16 6-7z" fill="#CEA840"/>
<path transform="translate(774,463)" d="m0 0 8 6 6 4 14 14 3 5-1 7-2 3-4-1-4-6-5-5-8-9v-2l-3-1-8-10-4-2z" fill="#BD9D3C"/>
<path transform="translate(442,215)" d="m0 0h8l8 2 2 1-3 9-5 5-11 9-8 6-2-1 3-11 3-6 4-13z" fill="#464547"/>
<path transform="translate(348,573)" d="m0 0h14l12 6 13 9 11 9 10 9 8 7 2 5-6-1-8-8-4-2-4-4v-2l-4-2-5-4-7-3-16-9-2-4-5-3-9-2z" fill="#C4C9CD"/>
<path transform="translate(360,263)" d="m0 0 4 1-3 12-8 11-6 11-2 6-1-4-2 5-5 1-2 2 2-10 6-13 10-19z" fill="#D5AE40"/>
<path transform="translate(440,688)" d="m0 0 3 1-1 12v4h2l1 8 2 5h2l2 6 3 2-14-2v-2l-7-2-3-4-1-4-1-6 2-1 3-9z" fill="#695B45"/>
<path transform="translate(413,680)" d="m0 0 6 1 2 1-1 3-5 3-9 1-1 3-4 1-1 2h-2l-2 5-5 7-3 8 2 2-7-1-4-3 2-9h-2l2-8 7-1 2-4 8-4h4l1-2h7l3-4z" fill="#B4B4B2"/>
<path transform="translate(735,359)" d="m0 0h2v3l8 1v1l-11 3v12l2 2-1 4-7 3-6-1-5-3-3 1-2 3v4h-6l-8 4h-2v-3l18-11 9-10 9-12 3 1z" fill="#6B5E4A"/>
<path transform="translate(331,527)" d="m0 0 3 1v6l-5 5-10 6-19 10-3 2h-3l-1-9 11-6 8-4 7-4 8-5z" fill="#444549"/>
<path transform="translate(256,585)" d="m0 0 6 4v4l9 2 3 1 1 4 4-2 1 5 2-1v3l5 2 2 3-3 1 2 3 15 2v1h-26l1-2-7-2-1-2h3l-1-2-5-1-2-4h-3l-1-7 1-2h-7l-3-3 3-5z" fill="#56575B"/>
<path transform="translate(726,499)" d="m0 0h5l8 3 13 10 3 1-8-7-1-2 4 1 5 5 6 5 5 7-1 2-2-1-4 2-5-1-5-4-5-3-3-2-5-1-1-6h-7-3l-3-5v-3z" fill="#A4853B"/>
<path transform="translate(249,576)" d="m0 0h1l1 22-11 2-5-1-9 1-1 2-12 4-1 3-2 1v2h-23l-20-2-9-2v-1h34l14-4 4-2 9-1 12-3h5l1-2 10-3z" fill="#2C2D30"/>
<path transform="translate(501,287)" d="m0 0 2 4h-2v2l-3 2v2l-5 1-1 3-2 1v3l-2-1 1 3-2 2-3 1-1 4 1 2h-3l-1 5-1 1 2 2-3 3 1 2-2 1-3 2h-2l1 4-3 1v4l-2 2-2-1-2 7-3 2 1-7 7-14 4-5 3-6 2-3v-3l-1-6 3-6h2v-4l2-1 2-4 3 1v2l5-2 2-4z" fill="#56575B"/>
<path transform="translate(788,451)" d="m0 0 4 1v3h4v2l7 2v2l5-1 13 10 1 2v7l2 3v2l3 1 3 3h2l1 3 2 1v2l4 2v2h2l3 6v2h2l1 3-6-2-1-4h-2v-2l-4-1-4-4-3-5-2-1v-2h-2l-5-8-6-4v-3h-2v-2h-2l-3-3-6-5-8-6v-3l-3-1z" fill="#55565A"/>
<path transform="translate(318,185)" d="m0 0h8l8 3 16 5 16 7 2 2-7 2-11 9-6 6-2-1 7-8 1-3h-8l-2 1v-9l-4-1-2-6 1-1-13-4z" fill="#9C8244"/>
<path transform="translate(361,309)" d="m0 0 1 4 2-4 2 3-1 2 1 3-9 29-3 11-3 1v-6l-4 1v-7l4-16 5-12 4-8z" fill="#0F0C0D"/>
<path transform="translate(1067,640)" d="m0 0 2 1v3l-16 6h-4v2l-9 4-17 3-15 3-13 3-25 5-20 3-22 3 1-3 17-2 21-4 23-5 25-4 22-6 16-7 8-3z" fill="#46474B"/>
<path transform="translate(771,529)" d="m0 0 5 1 9 7 9 8 5 8 1 3v10l-5 6-7 1 1-4 3-5-1-4-7-13-6-7-3-3-2-4v-3z" fill="#181819"/>
<path transform="translate(818,256)" d="m0 0 3 1v6l-7 11-4 7-2 1-3 6-13 13h-2l1-7 4-3 4-11 2-4 1-5 3-2 2-3 4-4 2-3h2l1-2z" fill="#DEC36A"/>
<path transform="translate(710,466)" d="m0 0 4 1 14 7 16 5 5 2-3 1-6-1v6l-4 2-1-2-1 5-3 1-7-3v-2l-4-1-5-12-1-4h-2z" fill="#444446"/>
<path transform="translate(635,373)" d="m0 0h3l-1 4 1 5h3l1 5h2v5l6-2v2l6-2v2l-6 4-1 3h-8l-2 2-6 1v2l-9 2v2l-10 3-8 2h-6l3-2 19-8 11-5 2-3-2-6-1-9z" fill="#717377"/>
<path transform="translate(511,419)" d="m0 0h4v3l-7 2-1 2 2 1-2 1 1 2h-2l1 3 2 2-5 1 3 2-4 1v3h2v2l5-1-4 3-5-3-1-2h-10v-2h-4v-2h-2v-3l-2-1 1-4 4-1v-2l11-3 5 1-2 3h5l-1-4-2-1z" fill="#B4B4B4"/>
<path transform="translate(677,498)" d="m0 0 6 1 6 3 13 3 5 4 3 7 2 4-6-5v-2l-4-2-2-3-5-1-7-2-1 2 3 3 11 8 8 6-1 3-15-1-2-4-5-5-9-16z" fill="#464544"/>
<path transform="translate(696,410)" d="m0 0 9 3 15 15 5 6v2h2v2l-7-1-21-6-1-2 3-3-4-2-2-2h2l-3-4 4-5-2-1z" fill="#717275"/>
<path transform="translate(726,492)" d="m0 0 4 1 7 4 9 6 7 8 4 4-5-2-13-10-6-2-7-1-2 1-2-1 4 8-1 7-2 2-8-1-7-5v-2l-4-2-10-3-9-3v-1l9 1 13 4 5 2h6l2-4-1-7 3 1v-3z" fill="#DDC063"/>
<path transform="translate(446,336)" d="m0 0h3v5l3 1 6-2 1 2-8 13-6 9-3 1h-8l-1-1 1-7z" fill="#BE9F3E"/>
<path transform="translate(99,429)" d="m0 0 2 1v2h2l9 11 4 3-1 2-5-4h-3l-1 2v9l9 17 2 9 1 8v14h-2l-7-26-11-44z" fill="#E0BB46"/>
<path transform="translate(244,560)" d="m0 0 5 1v2l5-1-1 3-22 10-19 7-12 2v-6l3 3 4-7 6 1 1-2 7-2 6-1v-2l8-1 3 2v-2h-2v-2h2v-2l6-1z" fill="#C6CBCF"/>
<path transform="translate(476,458)" d="m0 0h2v2l4-1-2 4v10l2 1v2l-27 9-29 9-4-1 12-5 4-1 5-4 2 2 7-2v-2l-2-1v-2h5v2l5-2 5-1v-2l-4 2-2-1 1-4 4 1 2-2 8-1-1-10z" fill="#6C6D71"/>
<path transform="translate(319,307)" d="m0 0 4 1 1 7-3 3v4h-3l-1 2h-2l1 7-7 8-3 3-2 1-2 4-4-3 1-4 4-8 2-6 2-4 3-5h3l1-2 2-3-2-1 1-2h3z" fill="#545559"/>
<path transform="translate(759,323)" d="m0 0h2l-2 4-3 1 2 5-2 3-1 5 5-3h2v-2l5-4h5v2l-7 2v2l-8 6-3 1-4 4-5-1-5 2h-3l2-12 7-6 9-6z" fill="#695B45"/>
<path transform="translate(620,453)" d="m0 0 1 2 3 1 5 8 1 4-4 3-1 3-3 1h-13l-2-1 1-10 8-7z" fill="#7F7E7C"/>
<path transform="translate(503,450)" d="m0 0h7l3 3-3 2-4 1-1 2-15 3h4v2l4 1-1 3-6 2v2l-9 4-3-2v-10l2-3-1-2 10-2 12-5z" fill="#96979A"/>
<path transform="translate(363,265)" d="m0 0 7 5 1 6 2 1-14 15-7 8h-4l-1-4 9-15 4-5z" fill="#434242"/>
<path transform="translate(80,350)" d="m0 0 6 2 4 2v2l5 1 2 2 7 3 9 4 13 2 1 2 18 1-4 2h-18l-23-6-15-6-6-3-2-4 1-3z" fill="#D0A73A"/>
<path transform="translate(762,551)" d="m0 0 6 3 7 7v2h2l4 4v2l3 1v3l-11 4-5-3-1-3h-2l-4-7 1-6-2-1z" fill="#BC9C3C"/>
<path transform="translate(1075,633)" d="m0 0 1 2h6v3h2l1 5-6 5-1 3-12 5-14 3-16 4h-5v2l-14 2h-8v-1l17-3 16-5 24-8 6-3 4-5z" fill="#AAAAAB"/>
<path transform="translate(598,487)" d="m0 0 7 2 22 12 21 12 19 12 6 7v2h-5v11l-2-3-2-11-7 1-2-8-8-7-15-10-22-12-12-7z" fill="#282727"/>
<path transform="translate(431,731)" d="m0 0h14l14 1 30 1 46 3 88 1v1l-28 1-70-1-45-2-30-2-19-2z" fill="#BFC2C6"/>
<path transform="translate(769,531)" d="m0 0 3 1 4 5v2l4 2 8 11 4 8 1 4-5 9 5-1-1 2-9 3-2 2h-6l5-5 4-1-1-3-3-3-7-10v-2l-4-2-1-3-3-1-1-4 5 2 1 4h2l5 6 6 4h2l1-6-3-7-9-8-5-8z" fill="#484747"/>
<path transform="translate(808,311)" d="m0 0 1 2-4 4-2 1 1 3 5 1 2 2 5 2 4 3-1 2-3 1 4 3 2 1-1 2-13-5-8-3-19-2-2-2 9-1 8-5 3-3 4-2 1-2z" fill="#7D7A75"/>
<path transform="translate(774,376)" d="m0 0 12 3 7 6 5 2 8 1 3 4 10 1-1 2-6 2-3 3-7-1-11-9-6-2-7-1 1-4-3-1v-3l-3 1-1-3z" fill="#DEB73F"/>
<path transform="translate(465,700)" d="m0 0 13 2 21 2v1h-19l1 7 4 4 6 2 2 2 14 4v1h-7l-12-3-6-2v-2l-7-1-9-6-1-2z" fill="#1A1B1D"/>
<path transform="translate(726,464)" d="m0 0h8l6 3h5l7 6v2l3 1 4 6 4 5-8-1-8-5-9-4-2-1v-2h-2v-2l-5-2-3-4z" fill="#171718"/>
<path transform="translate(153,479)" d="m0 0h3l2 6-1 6-1 4 3 6v8l-4 6h-2v2l-2 1h-6v-8l5-12 2-8z" fill="#252321"/>
<path transform="translate(771,715)" d="m0 0h8l2 2-9 3-24 5-9 2-35 5-25 3-34 2h-18v-1l25-2 47-4 39-5 5-2 9-1 8-3h5l1-2z" fill="#B9BCBF"/>
<path transform="translate(822,338)" d="m0 0 12 4-2 6-7 1-4 2h-7l-7 4-3 3-1 3-2 2-5 1-2-1h-5l-2-3h2v-3l6-3h7l2-3 8-4 11-5z" fill="#7D7B77"/>
<path transform="translate(117,471)" d="m0 0h2l6 13v4l2 1 2 11 4 5-2 8 4 2v2l3 1-4 2h-7l-4-2-1-8 1-9v-11l-4-11-2-6z" fill="#BFA03C"/>
<path transform="translate(726,506)" d="m0 0 9 2 1 6 7 1 3 3 7 4 2 2 5-1 4-1 5 2v1l-13 1v4h-2v-4l-9-3-3-2-2 6h-3v2h-2l-3-7-5-5 1-4z" fill="#685A44"/>
<path transform="translate(472,461)" d="m0 0h2v9l-9 3-2 1v-2h-3l-1 4 4-1 4-2-2 5-10 2v-2l-4 2 1 3-4-2v-1l-5 1-2-2 1-4h4l1-3-3-1 9-3 6-3 5-1-4 4h1l6-1 2-2 1 1z" fill="#96989A"/>
<path transform="translate(641,398)" d="m0 0h10v4l-9 2-6 2-11 5-4 2-11 3-13 4-1-3-11 2v-2l7-3 17-3 15-3v-2l9-2v-2l7-3z" fill="#A2A3A5"/>
<path transform="translate(879,345)" d="m0 0 5 1 11 6-2 6 1 3-9-3-9-1-11 4-9 4-1-3 8-6 8-4h5l1-5z" fill="#E1C466"/>
<path transform="translate(250,509)" d="m0 0 3 4 7 15 7 28 6-2 11-5 2 1-13 7-1 4h2l-1 3-3-1v-3h-2v-2l-6 2 1-4-6-17-5-14-2-8z" fill="#6D6F73"/>
<path transform="translate(1e3 606)" d="m0 0h6l3 36v5h8v1h-10l-4 1-1-14-4-28z" fill="#696B6F"/>
<path transform="translate(194,324)" d="m0 0 2 4-6 8-3 3-10 8-2 1-1-2-3-1-1-3 3-4-6-8v-2l9 3 7 1 5-4 3-3 1 4z" fill="#E4BE44"/>
<path transform="translate(297,315)" d="m0 0 2 3-3 9-6 16-3 13-1-4-5 2v2l-4-1 2-10 1-4h2l2-5 4-2 2-5z" fill="#C0A03C"/>
<path transform="translate(117,451)" d="m0 0 5 1 10 8 14 12 3 5-4-2-3-2v-2l-6-2-10-5-1-2h-9l1 9-2-1-3-11v-5z" fill="#BE9F3C"/>
<path transform="translate(157,343)" d="m0 0h5l1 4-5 5-6 2-12 1-13-3v-4l4-2 7 1 17-3z" fill="#B79536"/>
<path transform="translate(331,314)" d="m0 0h1l2 7 5 3 11 1-1 2h-16l-7 10-8 17-1-4-2 1 1-4 3-5v-7-1l2-5 9-14z" fill="#171718"/>
<path transform="translate(295,365)" d="m0 0h15l15 1v2h17v1l-25 3-28 2-4 1h-8l-2-3 23-1-3-1z" fill="#201F1F"/>
<path transform="translate(760,325)" d="m0 0 21 2 13 1v1l-9 2-6 4-7-1v-2l-6 2-4 2v2l-5 3h-2l1-7v-3-3z" fill="#A4863C"/>
<path transform="translate(644,402)" d="m0 0h3l-2 4-12 7-19 9-8 1-4-1 1-4 7-3 11-3 14-7 6-1z" fill="#737478"/>
<path transform="translate(765,467)" d="m0 0h5l8 9 14 16v3l-9-3-12-12-10-7 2-1z" fill="#272624"/>
<path transform="translate(221,371)" d="m0 0h18v1h-10v2l4 2 6 1v1l-24 2-3 1h-13l5-4 3-3h-3l-1 2-2-1-16-1v-1z" fill="#242526"/>
<path transform="translate(705,368)" d="m0 0 1 3-5 4-1 2-10 5-19 10-8 4h-2l1-3 4-3v-5l6-1v3l2-1-1-2v-3l7-2 4-3 12-1h2v-2z" fill="#ABACAE"/>
<path transform="translate(791,476)" d="m0 0 8 2 2-1v2l3-1 1 3 5 1 2 3 3 1v2h2v3l3 1 7 11 4 5 3 6-1 2-12-16-10-9-5-2v3h-2l-6-8-7-7z" fill="#444446"/>
<path transform="translate(675,350)" d="m0 0 5 2 5 4v4h-2l2 4-1 4-2 2-7-1v-2l3-1v-3-3l-5 2v7 3h-5v-2l-6-2 1-4h5v2h3l-4-4v-3l-3 1v-3l4-2 1-1h6l-1 3 5 1v-2h-2z" fill="#FAFAF9"/>
<path transform="translate(1070,637)" d="m0 0 3 1-1 2-18 5-14 7-20 6-10 1 3-2 9-2 6-2 10-3 2-1-1-2-6 1-1-1h-3l-5-1v-1l38-7z" fill="#242526"/>
<path transform="translate(444,684)" d="m0 0 8 1 4 3h5l6 2v2l5 1 2 5-2 3-7-1-7-4-7-3-11-6z" fill="#ACACAD"/>
<path transform="translate(343,628)" d="m0 0 7 1 13 10 2 2-1 3-3 3 1 3-6-1-1-3-4-2-3-3v-2h-2l-3-8z" fill="#D6AF43"/>
<path transform="translate(837,304)" d="m0 0 9 1 16 8 7 7 4 11 1 9-2 1-4-9v-2l-3 3-1 2h-2l1-6 1-2-3-8-5-4-11-5 1-2-2-1h-7z" fill="#7D7B77"/>
<path transform="translate(793,286)" d="m0 0 1 4-2 3-2 8 6-4-2 4-7 7-6 7-3 2-3 7h15l-2 2-9 1h-10l-5-1 5-5 4-2 2-5h2v-2h2l2-4 8-14z" fill="#ACACAE"/>
<path transform="translate(429,277)" d="m0 0h2l-1 7-6 11-4 8-2-1v-3l-4 1-1 5-7-3v-2l5-5h2l2-4 5-4 7-8z" fill="#BFA141"/>
<path transform="translate(478,301)" d="m0 0h2l-2 8 1 4-1 2 2 2-5 5-3 5-2 4-12 22-3 1 2-6 1-2-2 1 2-5 9-16 8-19 2-5z" fill="#3E3E41"/>
<path transform="translate(184,540)" d="m0 0 5 4 5 14 6 24v2l8-1-3 2-7 1-3-2-1-7-9-27z" fill="#6E7074"/>
<path transform="translate(831,478)" d="m0 0 11 7 12 13 6 7 5 4v2h-6l-5-4-4-2-14-18-4-6z" fill="#212020"/>
<path transform="translate(857,415)" d="m0 0 11 4 7 2v2h2v2l3-1v2l10 1 8 4 6 7-3 1v-2l-6-2-9-1-10-5-12-7-5-2z" fill="#B79536"/>
<path transform="translate(820,399)" d="m0 0 15 1h6l6 5v2l3 1 3 7h-2v2l-4-1-17-10-10-6z" fill="#B49336"/>
<path transform="translate(454,254)" d="m0 0h1v7l-4 2-6 8-8 10-5 2-2 5-2 1 3-9 5-5 2-4-2-1v2l-2-1 6-7 11-9z" fill="#1E1D1D"/>
<path transform="translate(774,463)" d="m0 0 8 6 6 4 7 7v2h-13l-1-3-3-1-8-10-4-2z" fill="#CCA43A"/>
<path transform="translate(165,529)" d="m0 0h6v2l2 2-22 6h-7l-1-1-13-1-5-3 3-1h10l25-3z" fill="#6D6F73"/>
<path transform="translate(469,297)" d="m0 0 2 1-2 4-9 13-4 6-6 1v-10l4-6 9-7 1 2z" fill="#222120"/>
<path transform="translate(634,697)" d="m0 0h2v13h-2l1 8-2 9-3 2-12-1-17-1v-2l-4-1v3l-4 1-3-4v-2h10l10 1h22z" fill="#6D6F73"/>
<path transform="translate(189,580)" d="m0 0 6 1 1 3 2 2-7 3-18 4-7 1h-8v-1h5v-2l7-1 4-5 14-4z" fill="#C7CBD0"/>
<path transform="translate(795,416)" d="m0 0h2l1 2 8 3v2l5 2 6 4 7 6 12 9 4 5-4-2-6-5-7-2-8-6v-2h-6l-1 3h-7v-1l5-1-2-4-4-5v-2l-4-2z" fill="#DDC36C"/>
<path transform="translate(1060,594)" d="m0 0h4v3h2l2 5 2 9 3 8 3 19-2-1v-2h-2l-3-6-9-32z" fill="#727478"/>
<path transform="translate(487,229)" d="m0 0 7 1v4h-2v2l3 1 1 8 1 2-7 3-1 3h-3v2h-2l2-4 3-3 2-5-1-7-3 6-3 9-4 2v-11l2 3 1-6-1-3-2-1z" fill="#797A7E"/>
<path transform="translate(707,509)" d="m0 0 8 6 4 1 1 3 4 3 4-2 6 6v4l-7 1v2l-4-2-11-11-4-5z" fill="#B59337"/>
<path transform="translate(265,558)" d="m0 0h3v2h2v3l3-1v2l-9 4h-3v2l-7 3-2 1-4-2v-2l-5 3v-2l-5 1 4-3 17-8z" fill="#272829"/>
<path transform="translate(838,341)" d="m0 0h2l2 5-5 1-3-1-2 4-8 5-8 4-13 1 2-5 6-3 3-2h9l4-2 5-1v-3z" fill="#6E7074"/>
<path transform="translate(210,601)" d="m0 0 4 1-7 4-2 3h-2v2l3-1 4 2h-23l-20-2-9-2v-1h34l14-4z" fill="#1C1D1E"/>
<path transform="translate(1019,399)" d="m0 0 1 2h5l-3 6-3 2h-12l-3 1-13-3-1-2 3-1 8-1h7l1-2z" fill="#E7C044"/>
<path transform="translate(687,504)" d="m0 0 9 3h5l3 5 5 5 4 3 3 5 1 2-8-2-17-13-5-3-1-3z" fill="#211F1F"/>
<path transform="translate(297,255)" d="m0 0h8l2 4-3 6h-3l-3 4-2 3-5-1-3-3-1-6 2 1v2h2l-3-6h4l1-2h4z" fill="#555658"/>
<path transform="translate(507,654)" d="m0 0h5v2l2-1h10l6 2 4 1h3l4 1 5 3h6l2 1v5l-4-2-12-2h-5l-1-1-12-1-2-2-12-4z" fill="#545559"/>
<path transform="translate(733,412)" d="m0 0 9 2v5l5 7 2 1 2 5 8 8-6-1 3 9 3-1 4 7 7 4v2l-5-2-9-6-7-14-3-9h-2l-4-5v-2h-2v-2h-2l-4-7z" fill="#635D53"/>
<path transform="translate(264,227)" d="m0 0h15l10 2 24 6 6 1-1 2-8-1v2l-13-2-8-1v-2h-9l-3-2 1-2-3-1-11-1z" fill="#E5C250"/>
<path transform="translate(477,688)" d="m0 0 3 2 1 7h3l-1-7 5 2 1 2v7l7 1-4-2-1-1v-6l5 2 4 5 1 4 15 2 8 3 5 2-4 1-9-3-17-4-21-2v-1l5-1-7-6 2-2z" fill="#939395"/>
<path transform="translate(765,424)" d="m0 0 5 1 9 4 4 6 4 2 2 6-9-3-12-7-3-1v-2h-2v-3h-2v-2z" fill="#242323"/>
<path transform="translate(203,522)" d="m0 0 9 1-5 4-5 1-1 3-5 2-1 2-10 1-3-2v-5z" fill="#B5B6B4"/>
<path transform="translate(996,441)" d="m0 0h2l-1 6-11 11-3 1-3-4-7 5-4-2 10-7 13-9z" fill="#1B1B1D"/>
<path transform="translate(366,294)" d="m0 0 1 3-1 4-3 6-4 1-5 4-7-1-2-4 4-5 5-3 3-2v2l5 1v-2z" fill="#BFA03D"/>
<path transform="translate(501,269)" d="m0 0h2l-1 10-9 5-9 8-2 2 1-5-2-2v-3l16-12z" fill="#23211F"/>
<path transform="translate(936,459)" d="m0 0 2 1-1 4-6 10-3 4-5 1-8 5-4-1-7-5 1-2 4-1 5 6 5-5 4-2 1-3 5-4z" fill="#434345"/>
<path transform="translate(596,729)" d="m0 0h18l10 1 14-1v3h-2v2l-21 1-31 1-1-2 3-1h27l-4-1h-13z" fill="#201E1E"/>
<path transform="translate(785,548)" d="m0 0 4 1v3l7 1h3l1 3v10l-5 6-7 1 1-4 3-5-1-4z" fill="#242222"/>
<path transform="translate(1e3 660)" d="m0 0m-8 1h8v1h-6v2l-14 3-15 3-20 3-22 3 1-3 17-2 21-4 23-5z" fill="#46474B"/>
<path transform="translate(880,446)" d="m0 0 4 2 4 1 2 5h2l1 4 4 2 8 10 3 5-1 2-5-2-1-4-5-2-8-11-7-7z" fill="#1F1E1E"/>
<path transform="translate(361,309)" d="m0 0 1 4 2-4 2 3-1 2 1 3-9 29-2-2 3-18-3-1 1-7 4-8z" fill="#171818"/>
<path transform="translate(695,447)" d="m0 0 9 2 12 5 8 3-4 1-1 3h-10l1 4-5-5-6-7z" fill="#4F4B44"/>
<path transform="translate(806,489)" d="m0 0 5 1 8 7v7l3 1 1 6h-3-3l-5 1-1-3-1-14-4-3z" fill="#161718"/>
<path transform="translate(737,407)" d="m0 0 1 2 9 2 11 5 14 7 9 5-3 1-20-8-19-7-5-1 1-5z" fill="#D8BB60"/>
<path transform="translate(279,341)" d="m0 0 1 4-2 9 1 2h2v-2l5-2v5l-5 3h-14l1-5 6-10z" fill="#D2AA3D"/>
<path transform="translate(479,290)" d="m0 0h2l-1 6-4 9h-3l-2 6-5 5-3 1h-2l-3 2 2-6 10-13z" fill="#D9BD63"/>
<path transform="translate(364,513)" d="m0 0 3 1v2l6-3 2 1-15 8-9 5h-2l-1-4-3 1-3 3h-8l2-2 4-2 11-5h2v-2l10-2z" fill="#6F7175"/>
<path transform="translate(856,433)" d="m0 0 4 1 2-1 2 3 7 3 6 7 14 14 3 4v2l-4-1-4-5-3-2-2-3-7-6v-2h-3l-5-5-4-2v-2h-5v-2h-2z" fill="#515256"/>
<path transform="translate(726,499)" d="m0 0h5l8 3 13 10 3 1-8-7-1-2 4 1 5 5 6 5 2 5-3-1v-2h-5l-13-8-6-3-13-2-1-4z" fill="#CAA740"/>
<path transform="translate(344,298)" d="m0 0 1 4 2-4 3 4-4 5-5 12-8 2-1-1 2-14h2l2-2v2l4-1 1-6z" fill="#A1833D"/>
<path transform="translate(426,724)" d="m0 0h7l10 1 4-1 12 3v2l12 1 17 2v1h-16l-33-3-2-1v-2l-11-2z" fill="#6E7074"/>
<path transform="translate(143,587)" d="m0 0h16l1 5-1 1 6 1v1l-9 1h-15l-2-2v-4h3z" fill="#A4A5A7"/>
<path transform="translate(293,295)" d="m0 0 1 2v5l2 5-4 8-4 10-2 4-3 1-3 4 2-10 7-19 3-9z" fill="#E4C14E"/>
<path transform="translate(788,329)" d="m0 0h12v1h-6l1 3 6 1-1 3-7 1-2-1-1 4-2 1-7-2-2-5 6-5z" fill="#B79536"/>
<path transform="translate(248,580)" d="m0 0h1v6l-2 6-14 6-6 1-8 2h-5l3-2 16-7 5-1 2-4z" fill="#161718"/>
<path transform="translate(414,721)" d="m0 0 16 4 7 2v2l35 3v1h-13l-28-2-14-3-3-3-1-3z" fill="#A1A2A4"/>
<path transform="translate(686,346)" d="m0 0 4 1 2 2v7l1 4h4l-2-5 5 1v4l2 1h-2l-1 3-5 4h-4v2l-3 1v-2h2l-3-13h3l-3-5z" fill="#98999B"/>
<path transform="translate(993,668)" d="m0 0h7v1l-48 7-19 3-30 4-11 2h-6v-1l22-4 32-5z" fill="#B7BABD"/>
<path transform="translate(699,535)" d="m0 0 5 5 9 8-4 3 2 5-5-5-4-8v5 3l-12-6-6-5 2-1 5 3 5 1v-2h2z" fill="#444548"/>
<path transform="translate(1067,525)" d="m0 0h2v3l4 2 7 6 2 1v2l4 1-3 1-7 2h-7v-6l-4-7z" fill="#585756"/>
<path transform="translate(834,346)" d="m0 0 3 1h-2l-2 5h-3v2l-5 2h-3v2l-3 3-5 1-4 1-1 4-2 1v2l-12-4v-2l5-2 3-2 13-2 15-8z" fill="#55565A"/>
<path transform="translate(367,277)" d="m0 0 3 3-9 10-10 11-4-2 1-5 7-8 5-2 2 1 1-5 3-2 1 1z" fill="#2A2B2C"/>
<path transform="translate(442,215)" d="m0 0h8l8 2 2 1-1 4h-4v-2h-3l1 2-6 2-5 4-4 1 1-7z" fill="#56534D"/>
<path transform="translate(496,423)" d="m0 0h6l1 2-8 4-3 1 1 6 3 5h-6v-2h-4v-2h-2v-3l-2-1 1-4 4-1v-2z" fill="#B2B2B2"/>
<path transform="translate(830,692)" d="m0 0h6l1 1 6-1 1 2-9 1v2l-17 5-3 1h-7l-5-1 2-2 24-7z" fill="#949698"/>
<path transform="translate(664,386)" d="m0 0h3l-1 5-4 3v3l-11 5v-4h-2l1-3 4-3h2v-2l-6 2h-3-3l1-2 5-3 2 1-1 2 6-1 4-2z" fill="#BCBFC2"/>
<path transform="translate(436,353)" d="m0 0h3v2l9-2 1 2-2 6-2 3-3 1h-8l-1-1 1-7z" fill="#B79537"/>
<path transform="translate(405,313)" d="m0 0 8 2-2 6-5 6-5-1-4-6-2-1v-5l3 2 5-1z" fill="#A5863B"/>
<path transform="translate(537,270)" d="m0 0 2 1-3 7-4 5-6 9-7 10-3-1v3l-4 1 5-10 9-10 10-14z" fill="#414142"/>
<path transform="translate(801,336)" d="m0 0 2 1v2h7l7 2-1 5-5 3h-6l-6-5h-6v-2l9-2z" fill="#B59336"/>
<path transform="translate(668,449)" d="m0 0 7 6 5 3 8 10-1 2-9-8-4-2-2 1-1-2h-3l1-2h-2v6h-3v-3l-5-1 1-3 7-1v-5z" fill="#6E7074"/>
<path transform="translate(255,204)" d="m0 0 3 1 3 15 1-2 11 2 4 1h-2l-1 3-12 2-5-5-2-6z" fill="#7D7C78"/>
<path transform="translate(820,392)" d="m0 0 10 4 7 2-1-3 4 1v2l5 1 6 5-1 2-6-5-4-2v2h-11l-13-3-4-2 6-2h2z" fill="#D3AA3B"/>
<path transform="translate(352,284)" d="m0 0 2 2-7 12-2 6-1-4-2 5-5 1-2 2 2-10 1-2h2l1-3 5-1 2-6z" fill="#BFA145"/>
<path transform="translate(520,440)" d="m0 0 2 1-1 10h-4l1-4-4 3 2 1v2l-6-1v-2l-7 1-5 2-1-2 2-5 11 1 4-1 1-4z" fill="#AAABAC"/>
<path transform="translate(640,362)" d="m0 0h9l-4 4-12 7-7 3-3-1 2-4 2-6 5 1 1-2 2 1 1-2z" fill="#55565A"/>
<path transform="translate(534,656)" d="m0 0 7 1 3 1h9l9 2h5l1 3-1 3h-9-3l-3-3h-7l-6-4h-4l-3-2z" fill="#414246"/>
<path transform="translate(472,461)" d="m0 0h2v9l-9 3-2 1v-2h-3l-2 6-4-2v-5l3-1h-3l-1 1h-5l3-2 8-4 5-1-4 4h1l6-1 2-2 1 1z" fill="#8D8F92"/>
<path transform="translate(706,391)" d="m0 0 12 2v1l-12 3-11 6-2 4-7-1 3-5 9-6z" fill="#A3843C"/>
<path transform="translate(479,432)" d="m0 0h2l-1 3zm-2 2h2v3l3-1 2 2 1 2-2 1v2h2l1 3-2 2-1-3h-5-2l-1 2h-3l-2 2-1-3h2l-1-2-7 3v-2l9-5 1-5 2 1v3h2l-1-4z" fill="#B4B4B3"/>
<path transform="translate(635,373)" d="m0 0h3l-1 4 1 5 3 1v3l-1 10-3 1-3-3-2-11 1-5z" fill="#BDC0C3"/>
<path transform="translate(399,214)" d="m0 0h7l5 1-6 8-5 6-5 2-1-4 4-6v-6z" fill="#4E4F51"/>
<path transform="translate(741,386)" d="m0 0 4 1 5 4v2l4 2 4 6-10-1-8-3z" fill="#78756E"/>
<path transform="translate(310,274)" d="m0 0 5 1-3 11v3l-3 1-2 4h-2v2l-3 1 1-7 3-10z" fill="#E5BD3F"/>
<path transform="translate(448,222)" d="m0 0 2 1-5 5-5 8v2h2l2-4 3 2-14 11-2-1 3-11 3-6 8-4z" fill="#414141"/>
<path transform="translate(375,335)" d="m0 0h2l2 4-1 8-5 9-8 6h-3l1-5h2v-3l4-4h4l-2-4 5-4z" fill="#535458"/>
<path transform="translate(230,489)" d="m0 0h3l-1 3-4 3h-2l-1 2h-3l-1 2-11 4h-2l-1 3h-2l-5 1-4-2 20-9z" fill="#6E7074"/>
<path transform="translate(225,287)" d="m0 0h4l-2 5-5 6-4 7h-2l-3 6-6 1 4-7 12-16z" fill="#2B2B2C"/>
<path transform="translate(769,531)" d="m0 0 3 1 4 5v2l4 2 8 11 4 8 1 4-4 4-3 1 1-7-2-1 1-6-3-7-9-8-5-8z" fill="#574F44"/>
<path transform="translate(317,349)" d="m0 0 1 2-2 7h28l2-6 3-2v2h2l1 7-2 1-19 1-18-1-1-6z" fill="#1F1E1E"/>
<path transform="translate(407,292)" d="m0 0h3v2l2 1-4 5h-2l-2 4-8 9-4 1-2 3-3-1 9-10 5-7 5-5z" fill="#333231"/>
<path transform="translate(450,478)" d="m0 0h5v2l5-2 3 1-1 4-33 10-7 1 3-2 9-4 4-1 5-4 2 2 7-2v-2l-2-1z" fill="#717377"/>
<path transform="translate(323,257)" d="m0 0h5v2l-9 2-7 10-1 2-5 2 1-9 4-8z" fill="#9F823C"/>
<path transform="translate(327,614)" d="m0 0h14l2 3 3 2-1 2 4 1 1 2-2 2-5-2v-4l-3 1-8-2-1-2h-17v-2z" fill="#A7A7A9"/>
<path transform="translate(587,482)" d="m0 0h5v2l6 2-3 1-5 1-1 2h-2l1 4h-12l-2-2 12-9z" fill="#57575A"/>
<path transform="translate(782,388)" d="m0 0 9 1 6 7v4h-8l-7-2 2-5 1-3-3-1z" fill="#29292B"/>
<path transform="translate(915,664)" d="m0 0h5l-4 2-1 2h2v-2h12l-2 4-10 3-3-1-2-1-9-1-2-2h4v-2z" fill="#2B2C2E"/>
<path transform="translate(1086,509)" d="m0 0h1l2 25v7l-7-2-1-5 2-5v-6h2z" fill="#E5CC73"/>
<path transform="translate(307,260)" d="m0 0 3 2-2 4-1 8 3-1-2 6-3 4h-2l-1 5h-2l-1-6 3-7 2-8z" fill="#B89637"/>
<path transform="translate(577,689)" d="m0 0h2l1 8v23l-2-1-35-3v-1h15l19 2-1-4v-23z" fill="#86878A"/>
<path transform="translate(681,378)" d="m0 0h1v5l-3 5-16 8h-2l1-3 4-3v-5l6-1v3l2-1-1-2v-3l7-2z" fill="#A7A8AA"/>
<path transform="translate(444,684)" d="m0 0 8 1 6 4 1 3 3 3-4 1-7-3-11-6z" fill="#ABACAD"/>
<path transform="translate(675,408)" d="m0 0h3l1 5 2 1 2 4-5 2v5l-4-2-3-5v-3l-2-2z" fill="#6C5F4A"/>
<path transform="translate(762,316)" d="m0 0 2 1-1 5-2 3v-2l-9 4-2 2-8 2-5 5-2-1-1-8 4-1 2 3 7-2 5-3 4-4 5-3z" fill="#888A8D"/>
<path transform="translate(453,282)" d="m0 0 2 1v5h1v9l-5 10h-1l-1-7-2-1-1-4 6-11z" fill="#B99D4C"/>
<path transform="translate(389,596)" d="m0 0 5 1 8 7 5 1 9 8 2 5-6-1-8-8-4-2-4-4v-2l-4-2z" fill="#A6A6A8"/>
<path transform="translate(598,487)" d="m0 0 7 2 22 12 21 12 2 2v3l-5-2-10-7-17-10-19-10z" fill="#514D49"/>
<path transform="translate(404,244)" d="m0 0h2l-2 6-7 7-6 7h-2v-2l-3 1 1-4 7-7z" fill="#222"/>
<path transform="translate(121,520)" d="m0 0h7v1l-5 1 6 3 5 1 3-1v3l2 1-1 2-12 1-3 1-2-9z" fill="#6E7074"/>
<path transform="translate(394,322)" d="m0 0 4 2 11 11 3-6 1 3 1 5v6l-2 3-4-2-3-3v-5-2l-7-7h-3z" fill="#58595D"/>
<path transform="translate(261,539)" d="m0 0 2 1 4 16 6-2 11-5 2 1-13 7-1 4h2l-1 3-3-1v-3h-2v-2l-6 2 1-4-2-5z" fill="#585A5E"/>
<path transform="translate(728,509)" d="m0 0 4 2 4 4 4 2-1 9-5-1-5-6-2-2 1-4z" fill="#484645"/>
<path transform="translate(106,456)" d="m0 0 2 3 7 14 2 8 1 8v14h-2l-2-8-1-19-5-12-2-4z" fill="#E6C045"/>
<path transform="translate(675,350)" d="m0 0 5 2 5 4v4h-2l2 4-1 4-2 2-7-1v-2l3-1v-3-3l-1-2h2v-2h-2z" fill="#F9F9F8"/>
<path transform="translate(789,291)" d="m0 0 1 3-8 14-3 4h-3l-1-7 5-7 6-4 3-1z" fill="#959799"/>
<path transform="translate(819,453)" d="m0 0 4 1 6 3v3h3v6l-6-1-6-3v-2l-5-2z" fill="#BD9E3C"/>
<path transform="translate(840,399)" d="m0 0 6 2 6 7 9 13v2l4 2 2 3-5-2-9-6-3-3 2-3-3-6-2-1v-2l-3-1z" fill="#8C7541"/>
<path transform="translate(480,285)" d="m0 0v3l-4 7-3 1-1 3-3-1-3 3h-4l-5 2 6-7 7-5 5-2z" fill="#3F3E3E"/>
<path transform="translate(406,268)" d="m0 0 2 1 1 5h-3v10l-2 5h-4l-2-5 1-4 6-11z" fill="#D1AD48"/>
<path transform="translate(820,399)" d="m0 0 15 1h6l6 5-1 2-5-2-1 2h-8l-12-7z" fill="#BD9E3C"/>
<path transform="translate(393,298)" d="m0 0 4 2 3 1-6 8-5 6h-4l3-9 3-7z" fill="#B79C4A"/>
<path transform="translate(122,529)" d="m0 0 1 4 5 2 10 2h7v1l5 1v1l-11 1-3 1h-10l-1-4-3-3z" fill="#A9AAAC"/>
<path transform="translate(656,443)" d="m0 0 5 1 3 2v2l2 1-3 3-4-1v2l-11-1v-4l2-1v2l3-1 1-3h2z" fill="#6E7074"/>
<path transform="translate(457,290)" d="m0 0h8l4 3-6 4-8 9h-3l3-9h2z" fill="#DDBF62"/>
<path transform="translate(103,452)" d="m0 0 3 3 3 9 5 12v15l-2-4-7-25z" fill="#E5C969"/>
<path transform="translate(667,413)" d="m0 0 5 1 1 5v3l-4-2-7-1-1 3-4 2-1 3-3 2v5l3 2v2l3 1-3 1-1-3-4-2-1-2v-5l6-7 6-4h2v-2z" fill="#A88C45"/>
<path transform="translate(331,317)" d="m0 0 4 5 9 3h6l-1 2h-16l-5 7-2-1-1-5 2-3 2-6z" fill="#292725"/>
<path transform="translate(715,551)" d="m0 0 4 2 8 7v2l4 2 14 14 6 7v2h-8l-4-1-3-4 1-2 3 3v2h5l-1-4-9-10-9-8-5-5z" fill="#444549"/>
<path transform="translate(765,526)" d="m0 0h3l-2 4-12 7-8 7h-2l1-4 3-1v-2l6-5 3-4z" fill="#1D1C1C"/>
<path transform="translate(553,730)" d="m0 0h8l10 3 11 1v1h-39l-6-1v-1l7-1h7z" fill="#202020"/>
<path transform="translate(346,522)" d="m0 0 3 1v5l-8 5-6 3h-2v-8l1-1 10-1z" fill="#C5C9CE"/>
<path transform="translate(525,389)" d="m0 0h3l2 4 3 1-2 5h-8l-4-1v-3l-6-1v-2h5l2-1 1 2 3-1zm6 3 3 1z" fill="#515256"/>
<path transform="translate(374,591)" d="m0 0 11 4-1 2-6-2-1 2-2-1-7 1-3 1-3 3-3-3-1-4 8-1 5-1z" fill="#545559"/>
<path transform="translate(779,429)" d="m0 0 6 1 3 1v2l13 2-3 2-6 2-1 1 4 2-5 1-3-3-1-3-5-3z" fill="#806C41"/>
<path transform="translate(580,721)" d="m0 0 10 1 3 5h4v-3h6l-2 1v2h17v1l-26 1-11-4z" fill="#4A4C50"/>
<path transform="translate(487,229)" d="m0 0 7 1v4h-2v-3l-5 2-1 8-2 10-4 2v-11l2 3 1-6-1-3-2-1z" fill="#6E7074"/>
<path transform="translate(801,487)" d="m0 0 4 5-1 7-2 3-4-1-4-6-2-2h4v-2l4-2z" fill="#B59336"/>
<path transform="translate(720,458)" d="m0 0 1 2 2 1h-2v5l2 2v3l-9-3-4-2-2-6h11z" fill="#27282A"/>
<path transform="translate(734,332)" d="m0 0 2 3-4 6-3 1 2 1-1 3-5 1-9 5-6 5-7 3-3-1 8-5 8-6 4-1 11-8z" fill="#A4A5A6"/>
<path transform="translate(459,344)" d="m0 0v3l-3 6v3l-2 5-1 3-2-1-3 3-3-1 2-5 8-13z" fill="#444344"/>
<path transform="translate(771,715)" d="m0 0h8l2 2-9 3-24 5h-8l3-2 9-1 8-3h5l1-2z" fill="#9C9D9F"/>
<path transform="translate(760,525)" d="m0 0h10l3 3 1 7-3-3-7 1-10 6-6 5-2-1 11-9 9-5 2-3-12 3v-3z" fill="#484644"/>
<path transform="translate(709,395)" d="m0 0 4 1 1 2-11 2-1 7 3 6-4-2v-2l-5-1-5-2 3-1 1-3 11-6z" fill="#DFC265"/>
<path transform="translate(774,463)" d="m0 0 8 6 2 2v3l-3 1-8-4-3-3-4-2z" fill="#DFBA47"/>
<path transform="translate(720,380)" d="m0 0h7l4 1h5l-1 4-7 3-6-1-2-4-2-1h2z" fill="#464545"/>
<path transform="translate(493,231)" d="m0 0 7 2 1 2v11l-4 1-2-2-1-8-2-1v-2h2z" fill="#48494C"/>
<path transform="translate(735,571)" d="m0 0 7 6 4 6-1 3-5-1-4-5v-2l-4-2 1-4z" fill="#27282A"/>
<path transform="translate(181,561)" d="m0 0h3l1 2h5l3 9-1 4-5-2-2-1-1-5-3-5z" fill="#C5CACE"/>
<path transform="translate(776,316)" d="m0 0 2 1-3 7h15l-2 2-9 1h-10l-5-1 5-5z" fill="#C8CBCE"/>
<path transform="translate(641,398)" d="m0 0h10v4l-9 2-6 2-6 1 3-5 7-3z" fill="#A6A7A9"/>
<path transform="translate(474,302)" d="m0 0 2 3-3 10-2 4h-4l-1 2-2-2-4-1 2-5 4 2 5-5v-5z" fill="#E0BA44"/>
<path transform="translate(356,632)" d="m0 0 6 2 4 2 5 5 15 9 3 2v2l-4-1v-2l-5-2-17-9-7-5z" fill="#C8CBCA"/>
<path transform="translate(404,305)" d="m0 0 3 1 1 5-5 5-7 1v-5l3-3z" fill="#BFA03C"/>
<path transform="translate(754,530)" d="m0 0v3l-4 4h-2v2l-3 2-1 3 2 1-3 1 2 6-5-2-3-2v-2l-4-1 1-2h7l7-8z" fill="#4E4B4A"/>
<path transform="translate(492,336)" d="m0 0 1 2-3 7h-2v5l-2 2v2l-5 1-2-1v-2l3-3 6-12z" fill="#222"/>
<path transform="translate(406,274)" d="m0 0 4 1 1 9 6-2-2 3-5 3-5 2z" fill="#4C4844"/>
<path transform="translate(936,459)" d="m0 0 2 1-1 4-5 7-7 5h-3l2-5 5-4z" fill="#2A292A"/>
<path transform="translate(775,428)" d="m0 0 4 1 4 6 4 2 2 6-9-3-12-7 2-1 9 4 1-1-5-6z" fill="#323335"/>
<path transform="translate(210,601)" d="m0 0 4 1-7 4-2 3h-2v2l3-1 4 2h-23v-1l8-1 2-2h3v-2h3v-2z" fill="#242323"/>
<path transform="translate(689,503)" d="m0 0 10 1 6 3 6 10v3l-5-5v-2l-4-2-2-3-5-1-6-2z" fill="#444"/>
<path transform="translate(788,496)" d="m0 0 4 3v2l4 2 1 4-2 4-5-1-5-5h4l1-4z" fill="#AF8E38"/>
<path transform="translate(83,355)" d="m0 0 12 5 6 4 6 3-3 1-17-6-3-2z" fill="#B59437"/>
<path transform="translate(668,727)" d="m0 0 18 1v2l-2 1-16 1-3-1v-2l-3 1-6-1v-1z" fill="#545559"/>
<path transform="translate(726,508)" d="m0 0 2 2 1 5v3l6 7-1 4-3-5-3-3h-2l-2 2-5-4v-2l5-2z" fill="#A8893B"/>
<path transform="translate(128,352)" d="m0 0 12 2 12-1 5-1-4 3-8 3h-11l-1-3-5-1z" fill="#DDB33C"/>
<path transform="translate(926,504)" d="m0 0 4 1-15 13-6 5-2-1 2-4 7-5 5-5z" fill="#1F1F21"/>
<path transform="translate(459,307)" d="m0 0 2 1-3 5h2l-2 6-5 3h-3v-8l6-2 2-4z" fill="#18191A"/>
<path transform="translate(897,461)" d="m0 0 4 4 5 6 2 6-5-1-2-2v-3l-5-2-2-4z" fill="#2A2A2B"/>
<path transform="translate(503,450)" d="m0 0h7l3 3-3 2-4 1-1 2-5-1-2-2-5 2-3-1 12-5z" fill="#909294"/>
<path transform="translate(396,287)" d="m0 0 5 5-1 5h2l-1 4h-5l-2-2-2 1 1-6z" fill="#D4AD41"/>
<path transform="translate(307,256)" d="m0 0 4 2 2 3h-5l-4 8-2 9-5 10-1-4 6-17z" fill="#E1C667"/>
<path transform="translate(321,532)" d="m0 0 4 1-2 3-7 4-13 6-5 1 2-3 12-6 7-4z" fill="#2A2A2C"/>
<path transform="translate(477,688)" d="m0 0 3 2 1 7h3l-1-7 5 2 1 2v6h-2l-1 2v-2l-5-1-5-5 2-1z" fill="#AFAFAE"/>
<path transform="translate(924,670)" d="m0 0 16 2v1l-32 3h-9v-1l18-3z" fill="#232323"/>
<path transform="translate(477,443)" d="m0 0 7 2v4l2 2-1 2h-3l-1 2-1-3 1-1-3-1v2h-6l1-4h3z" fill="#BBBDBE"/>
<path transform="translate(826,427)" d="m0 0 2 1-1 1 4 4-2 2 7 6-2 2-15-11 4-2z" fill="#626264"/>
<path transform="translate(837,387)" d="m0 0 12 7 1 2-10 1-6-3-1-3 4 1v-2l-2-1h2z" fill="#E3BF4B"/>
<path transform="translate(712,383)" d="m0 0h2l-2 5v4h-6l-8 4h-2v-3z" fill="#59534B"/>
<path transform="translate(658,362)" d="m0 0h5v2h-2l-2 7-2 2h-3l1 4-6-1-1-4 8-2v-2l-5-1 4-2 4 1z" fill="#FAFAF9"/>
<path transform="translate(502,642)" d="m0 0h2l1 2h7v2h7l8 3-1 2-15-2v-2l-11-1z" fill="#55565A"/>
<path transform="translate(791,476)" d="m0 0 8 2 2-1v2l3-1 1 3 5 1 2 3 3 1v2h2l-1 3-2-4-9-2v-2l-5-1-5-2z" fill="#585758"/>
<path transform="translate(836,413)" d="m0 0 7 1 7 3 3 3-1 2h2l-1 3-17-10z" fill="#2C2D2E"/>
<path transform="translate(490,235)" d="m0 0 2 4-1 6-3 5-3 3-4-1 3-3 4-12z" fill="#3A3A3D"/>
<path transform="translate(843,490)" d="m0 0 5 2 12 13 5 4v2h-6l-5-4v-2h2l-8-10z" fill="#1B1B1C"/>
<path transform="translate(831,478)" d="m0 0 11 7 6 7-5-2-1 4-6-7-4-6z" fill="#2E2C2B"/>
<path transform="translate(827,448)" d="m0 0 4 1 8 4 5 4 8 3-4 1h-6l-2-3-5-3-6-4z" fill="#B49237"/>
<path transform="translate(749,435)" d="m0 0 1 2h3l2 7 1 4 3-1 4 7 7 4v2l-5-2-9-6-7-14z" fill="#7D6E4C"/>
<path transform="translate(453,671)" d="m0 0h2l5 5 3 2-5 1h-4v3l-4-2-2-3 3-1 1-4z" fill="#9C9D9F"/>
<path transform="translate(448,225)" d="m0 0h3l-1 7-7 4-4 4-1-2 5-9z" fill="#707275"/>
<path transform="translate(474,635)" d="m0 0h3l1 2 11 3 7 1 4 4-8-1-20-6z" fill="#55565A"/>
<path transform="translate(219,600)" d="m0 0 2 3-8 3-1 3-2 2h-7v-2l5-5 6-3z" fill="#27282A"/>
<path transform="translate(875,445)" d="m0 0 4 2 7 8 8 9v2l-4-1-4-5-3-2-2-3-3-3v-4l-3-1z" fill="#48494D"/>
<path transform="translate(433,270)" d="m0 0 2 1 1-1 3 1-2 4-3 1-2 4-1-3-9 4 2-4 6-4z" fill="#2E2C2A"/>
<path transform="translate(795,416)" d="m0 0h2l5 5 1 3 4 2 4 3v2l-2 1-1 3h-7v-1l5-1-2-4-4-5v-2l-4-2z" fill="#C5A546"/>
<path transform="translate(717,428)" d="m0 0 7 4 1 4h2v2l-7-1-5-2-1-5z" fill="#706A5E"/>
<path transform="translate(496,423)" d="m0 0h6l1 2-8 4-7 1-1 3-2-5h2v-2z" fill="#AFB0B2"/>
<path transform="translate(521,679)" d="m0 0h2l2 7-1 2-1 15-2-1-1-13-1-4z" fill="#A0A1A4"/>
<path transform="translate(693,398)" d="m0 0h9l-5 4-4 4-4 1-3-2 5-6z" fill="#CAA33A"/>
<path transform="translate(429,277)" d="m0 0h2l-1 7-2 4h-3l-2 2v-2l-4 1 4-6z" fill="#C3A446"/>
<path transform="translate(806,359)" d="m0 0 3 1-1 2-2-1-1 5 2 4-12-4v-2l5-2 3-2z" fill="#736242"/>
<path transform="translate(357,317)" d="m0 0 2 1 4-1-1 4-2 6-2 11h-1l1-12-3-1 1-7z" fill="#171718"/>
<path transform="translate(446,296)" d="m0 0 3 3h1l-1 9-1-2-5-1-1 7h-2l1-7z" fill="#DBBF63"/>
<path transform="translate(764,545)" d="m0 0 5 2 1 4h2l5 6 6 4-4 3-4-4-2-5-4-2-1-3-3-1z" fill="#6B5C44"/>
<path transform="translate(621,455)" d="m0 0 3 1 5 8 1 4h-2v-2l-11-3v-2l3-1 1-2-2-1z" fill="#776542"/>
<path transform="translate(755,324)" d="m0 0 2 1-6 5-7 4-3 4h-2v-2l-2-1 7-6 7-2zm-20 12 2 1z" fill="#6E7074"/>
<path transform="translate(380,271)" d="m0 0h3l-2 5-3 4h-6l-1 2-5 4 2-5 10-9z" fill="#CEB056"/>
<path transform="translate(957,669)" d="m0 0h5v2l-31 5h-3l1-3 17-2z" fill="#444549"/>
<path transform="translate(684,414)" d="m0 0h3l2 5-4 4-5 1-3-2 1-3 4-1v-3z" fill="#6E7074"/>
<path transform="translate(639,383)" d="m0 0 3 1v3h2v5l6-2v2l6-2v2l-4 3-9-2v3h-3v-10z" fill="#747679"/>
<path transform="translate(745,363)" d="m0 0h5l-1 2-10 4h-2l-3 10-1-4v-8l7-3z" fill="#B3913B"/>
<path transform="translate(399,214)" d="m0 0h7l5 1-3 4-9 2-1-6z" fill="#838078"/>
<path transform="translate(619,727)" d="m0 0 11 1v2l-7 1-11-1h-10v-2z" fill="#424347"/>
<path transform="translate(256,585)" d="m0 0 6 4v6h-7l-3-3 3-5z" fill="#55565A"/>
<path transform="translate(247,585)" d="m0 0 2 1-2 6-14 6-4-2 8-3h2v-2h4l2-4z" fill="#211F1E"/>
<path transform="translate(149,529)" d="m0 0h2v2h-2v2l-11 1h-10l-3-1 1-2 19-1z" fill="#48494D"/>
<path transform="translate(766,439)" d="m0 0h5l1 2-3 2 2 2v3l-4 1-4-4v-2l-4-2 2-1z" fill="#55565A"/>
<path transform="translate(487,280)" d="m0 0h2l1 5-7 9-1-4v-2l-1-4z" fill="#191718"/>
<path transform="translate(1069,654)" d="m0 0m-3 1h3v2l-26 6h-7v-1l21-5z" fill="#C9CED3"/>
<path transform="translate(687,504)" d="m0 0 9 3h5l3 5 2 1-1 2-3-1v-2l-4-2h-10l-2-4z" fill="#262729"/>
<path transform="translate(329,255)" d="m0 0 4 1-6 7-4 6-2-4v-3l-2-2 9-1v-2l-2-1z" fill="#C3A445"/>
<path transform="translate(343,628)" d="m0 0 7 1 2 3-1 3-3 3-2 1-3-8z" fill="#E2BF4F"/>
<path transform="translate(726,499)" d="m0 0h5l6 5-1 2-13-2-1-4z" fill="#C09F3B"/>
<path transform="translate(791,409)" d="m0 0 8 3 4 6 3 2-2 1-7-3v-2l-4-1-3-5z" fill="#5A5A5C"/>
<path transform="translate(673,379)" d="m0 0m-5 1h5l1 3 1 4-4 1 1-4-12 5-3 1v-2l9-6h2z" fill="#737578"/>
<path transform="translate(636,527)" d="m0 0 7 1 2 1 5-1 2 1v2l5 1-3 1-2-1-1 2-5-1-2 1v-3l-6-1z" fill="#7D7B77"/>
<path transform="translate(441,273)" d="m0 0v3l-5 6-4 1-2 5-2 1 3-9 3-4z" fill="#262627"/>
<path transform="translate(763,198)" d="m0 0h28v1l-14 1-2-1-1 2-5-1v1h-6v2l-4-1z" fill="#ADAEB0"/>
<path transform="translate(229,373)" d="m0 0h14l1 3-1 1h-15l-2-3z" fill="#3F4044"/>
<path transform="translate(348,350)" d="m0 0 1 2h2l1 7-2 1h-14v-1l8-1 2-6z" fill="#161617"/>
<path transform="translate(832,689)" d="m0 0 3 1-6 4-9 3h-6v-2z" fill="#5F6064"/>
<path transform="translate(341,620)" d="m0 0h2l1 4 6 1 6 7-1 2-7-5-6-2-2-4-2-2z" fill="#CDD0D0"/>
<path transform="translate(756,479)" d="m0 0 4 2 9 10-1 3-10-6-1-3 5 1z" fill="#353332"/>
<path transform="translate(475,462)" d="m0 0h1l1 6 2-4 1 9 2 1v2l-6 2-4-1h2z" fill="#404145"/>
<path transform="translate(996,441)" d="m0 0h2l-1 6-5 4-2-2v-2h-2l2-4z" fill="#242323"/>
<path transform="translate(686,346)" d="m0 0 4 1 2 2v7l1 4-7-3 3-1-3-5z" fill="#A3A4A5"/>
<path transform="translate(472,733)" d="m0 0h17l12 1v1l-5 1h-16v-2h-8z" fill="#B5B8BB"/>
<path transform="translate(638,721)" d="m0 0 2 1v2h20v2l-16 1-6 1z" fill="#97989B"/>
<path transform="translate(158,607)" d="m0 0h13l14 1 1 2h-19l-9-2z" fill="#141415"/>
<path transform="translate(768,497)" d="m0 0 5 3 8 4 3 3v2h-4v-2l-3 1-5-5v-2l-4-2z" fill="#55565A"/>
<path transform="translate(484,427)" d="m0 0 3 1-4 1-1 4 4 2h-2v2h2l-1 2-6-2 1-3 1-2-3-1-6 1 4-3z" fill="#B6B6B5"/>
<path transform="translate(635,373)" d="m0 0h3l-1 8-2 10h-2l-1-11z" fill="#68696D"/>
<path transform="translate(810,696)" d="m0 0 6 1-3 2-6 2 1 2-8 1v-2h-2v-2z" fill="#6F7074"/>
<path transform="translate(1038,659)" d="m0 0 3 1-5 3h-5v2l-14 2h-8v-1l17-3z" fill="#AAACAF"/>
<path transform="translate(786,556)" d="m0 0 3 2v2l4 1-1 5-6 3 1-7-2-1z" fill="#615544"/>
<path transform="translate(777,498)" d="m0 0 5 2 3-2h4v2l2 1-2 4h-5l-7-6z" fill="#BC9D3C"/>
<path transform="translate(499,446)" d="m0 0 9 1 3 1v2l-8 1-5 2-1-2z" fill="#AEAFB1"/>
<path transform="translate(392,319)" d="m0 0h6l3 6 4 3h3v5h2l-1 3-13-13z" fill="#313031"/>
<path transform="translate(337,191)" d="m0 0 5 1-1 12h-1v-5l-4-1-2-6z" fill="#C1A23F"/>
<path transform="translate(360,254)" d="m0 0h3v9l-9 3 2-5z" fill="#DFC56B"/>
<path transform="translate(507,725)" d="m0 0h11l11 2 11 1v1l-11 1-6-1-16-3z" fill="#161718"/>
<path transform="translate(428,684)" d="m0 0h5v2l3 1-9 4-8 4-5 2 4-4 7-5 5-2z" fill="#96989A"/>
<path transform="translate(327,614)" d="m0 0h12l-4 1 1 4h-4l-1-2h-17v-2z" fill="#97989A"/>
<path transform="translate(249,576)" d="m0 0h1l1 22-7 1v-2l3-1 2 1v-2l-4-2 3-7z" fill="#262729"/>
<path transform="translate(284,549)" d="m0 0 2 1-13 7-1 4h2l-1 3-3-1v-3h-2l1-4z" fill="#585A5E"/>
<path transform="translate(771,529)" d="m0 0 5 1 7 5-3 1-1 3h-3l-3-6v-3z" fill="#1C1B1B"/>
<path transform="translate(293,326)" d="m0 0 2 4-4 10-2 1-1 3-2-1v-5l3-1 3-10z" fill="#B49437"/>
<path transform="translate(361,309)" d="m0 0 1 4 2-4 2 3-1 2 1 3-2 2v-2l-5 1-1 3-1-5 3-6z" fill="#282727"/>
<path transform="translate(780,536)" d="m0 0 5 1 4 5-1 3-5-2-5-3z" fill="#0F0D0E"/>
<path transform="translate(515,416)" d="m0 0 2 1v2l-8 2-4 2 1 4h-4l-1 2-1-3 1-2-3-1 12-5z" fill="#BFC2C4"/>
<path transform="translate(429,339)" d="m0 0 2 1-1 10-1 1-1 15h-1l-1-10 2-16z" fill="#72706C"/>
<path transform="translate(1e3 628)" d="m0 0h1v19l-3 2v-13z" fill="#737579"/>
<path transform="translate(141,596)" d="m0 0h5v2l4 2h-2l3 5-6-2-7-5z" fill="#414245"/>
<path transform="translate(735,344)" d="m0 0h3l-1 7-1 4-5-1v-2l-2-1z" fill="#B7BBBE"/>
<path transform="translate(397,304)" d="m0 0h2l1 4-4 5-4 1-2 3-3-1 9-10z" fill="#2A2A2C"/>
<path transform="translate(461,714)" d="m0 0 7 2v2l7 1 12 6-2 1-6-2-9-4-5-2-4-2z" fill="#27282A"/>
<path transform="translate(889,478)" d="m0 0 4 3 5 4v5l-3 2-3-1 2-4-5-5z" fill="#48494D"/>
<path transform="translate(532,376)" d="m0 0h5l-5 5 2 1-6 2v2l-3-1 1-5 3-3z" fill="#46474B"/>
<path transform="translate(436,356)" d="m0 0 1 2 4 1-1 4 2 2h-8l-1-1v-5z" fill="#A3843C"/>
<path transform="translate(461,338)" d="m0 0h2v6l-5 9-3 1 2-6 1-2-2 1 2-5z" fill="#303031"/>
<path transform="translate(321,332)" d="m0 0v3h-2v2h-2l-1 4-2 3h-2l-1 2-1-5 8-8z" fill="#252527"/>
<path transform="translate(543,716)" d="m0 0h2v2l3-1 1 4-3 3-4-1-2-6z" fill="#161718"/>
<path transform="translate(1054,654)" d="m0 0 4 1-5 2-1 2-11 3-3-1 7-4z" fill="#A2A3A5"/>
<path transform="translate(843,435)" d="m0 0 4 2 5 4 5 6 4 4-2 1-5-5-3-2-4-5-2-1v-2l-3-1z" fill="#55565A"/>
<path transform="translate(681,378)" d="m0 0h1v5l-3 4-5-1-1-2v-3l7-2z" fill="#949698"/>
<path transform="translate(585,733)" d="m0 0h18l12 1v1l-31 1-1-2z" fill="#242324"/>
<path transform="translate(590,722)" d="m0 0h10l8 1v1h-11v3l-4 1-3-4z" fill="#7C7E81"/>
<path transform="translate(233,592)" d="m0 0m-3 1h3v2l-4 1v2l-10 3h-5l3-2z" fill="#181919"/>
<path transform="translate(694,522)" d="m0 0 7 2v-2l6 2 2 1-1 2-15-1-1-3z" fill="#57585B"/>
<path transform="translate(887,454)" d="m0 0 4 2 6 4-1 4h-3l-6-7z" fill="#232323"/>
<path transform="translate(476,458)" d="m0 0h2v2l4-1-3 5-1 11h-1l-2-11-2-4z" fill="#5B5D61"/>
<path transform="translate(807,400)" d="m0 0 4 4-3 3-6-1-2-4 4-1 3 1z" fill="#555659"/>
<path transform="translate(455,288)" d="m0 0h1v9l-5 10h-1v-9h2l1-4h2z" fill="#987E3D"/>
<path transform="translate(522,732)" d="m0 0 15 1 3 1v2l-18-1z" fill="#424347"/>
<path transform="translate(563,730)" d="m0 0h7l13 2-1 3-11-1-8-3z" fill="#161718"/>
<path transform="translate(400,598)" d="m0 0 4 2 7 2 3 3 4 2v2l-4-1-6-2-7-6z" fill="#56585C"/>
<path transform="translate(128,536)" d="m0 0 17 1v1l5 1v1l-15 1v-2l-6-1z" fill="#949698"/>
<path transform="translate(738,507)" d="m0 0 6 2 11 7v1h-6v-2l-5-2-6-5z" fill="#B79536"/>
<path transform="translate(659,419)" d="m0 0v3l-3 5-3 2v5l3 2v2l3 1-3 1-1-3-4-2-1-2v-5l6-7z" fill="#A19472"/>
<path transform="translate(775,311)" d="m0 0 2 1v2h-2l-2 5-4 3h-4l1-3 8-7z" fill="#989A9B"/>
<path transform="translate(789,291)" d="m0 0 1 3-8 14-3 3h-2l2-4 4-6 3-5z" fill="#6E7074"/>
<path transform="translate(768,279)" d="m0 0 7 1 6 3v2l-9-2-1 2-5-2v-3z" fill="#A7A7A9"/>
<path transform="translate(634,697)" d="m0 0h2v13h-2l1 8-2 1v-14z" fill="#75777A"/>
<path transform="translate(712,469)" d="m0 0 5 2v2h2l2 10-1 4-5-12-1-4h-2z" fill="#867142"/>
<path transform="translate(656,424)" d="m0 0 3 4 1 4h-4v2l-3 1-1-1v-5l4-2z" fill="#E4C662"/>
<path transform="translate(630,404)" d="m0 0 2 1-1 3-8 4h-3l-1-3 5-1v-2z" fill="#9FA0A2"/>
<path transform="translate(810,359)" d="m0 0h5l-1 3-4 1-1 4-5-1 2-5z" fill="#545559"/>
<path transform="translate(185,339)" d="m0 0 1 2-5 5-7 8-5 2 6-8z" fill="#9E833E"/>
<path transform="translate(762,316)" d="m0 0 2 1-1 5-2 3v-2l-9 3 5-6z" fill="#8F9193"/>
<path transform="translate(509,440)" d="m0 0 5 2v4l-6 2-9-2 3-2 5 1 2-2z" fill="#B9BABA"/>
<path transform="translate(478,435)" d="m0 0 1 2 3-1 2 2 1 2-2 1v2h2l1 3-2 2-1-3h-5l1-4-1-3z" fill="#AAAAAB"/>
<path transform="translate(643,393)" d="m0 0 7 1-1 5h-11l2-3h3z" fill="#515357"/>
<path transform="translate(841,348)" d="m0 0 7 1 2 4-6 4h-2l1-8z" fill="#585858"/>
<path transform="translate(370,268)" d="m0 0h6l2 3-5 5h-2l-2-7z" fill="#D7B855"/>
<path transform="translate(771,715)" d="m0 0h8l2 2-9 3-6 1 2-4z" fill="#A0A2A4"/>
<path transform="translate(1076,641)" d="m0 0h2l-1 5-4 2v2l-11 4-4-1 12-5 6-5z" fill="#96989A"/>
<path transform="translate(735,571)" d="m0 0 3 2 1 5v4l-3-2v-2l-4-2 1-4z" fill="#232221"/>
<path transform="translate(612,461)" d="m0 0h2l2 5-1 3h-3l-2 2-1-7z" fill="#686561"/>
<path transform="translate(788,451)" d="m0 0 4 1v3h4v2l4 1-1 4-4-2-4-3v-3l-3-1z" fill="#56575B"/>
<path transform="translate(667,454)" d="m0 0 4 1zm-5 1h5v8h-3v-3l-5-1 1-3z" fill="#707274"/>
<path transform="translate(683,422)" d="m0 0 4 2v2l4-1 1 3h-7l-7-3v-2z" fill="#777570"/>
<path transform="translate(320,347)" d="m0 0 2 4-2 7h8v1h-13l3-7z" fill="#615643"/>
<path transform="translate(323,339)" d="m0 0 1 3-6 12-1-4-2 1 1-4 4-6h2z" fill="#131212"/>
<path transform="translate(313,211)" d="m0 0 8 1 7 1 5 1 1 2h-14v-2l-6-1z" fill="#292A2B"/>
<path transform="translate(596,729)" d="m0 0h18l9 1v1l-27 1z" fill="#242425"/>
<path transform="translate(754,532)" d="m0 0 1 4-9 8h-2l1-4 3-1v-2z" fill="#211F1E"/>
<path transform="translate(479,465)" d="m0 0 2 2 1 6 2-1-1-7 4 4 4 2-9 4-3-2z" fill="#707276"/>
<path transform="translate(620,453)" d="m0 0 1 3-1 5h-3l1 3-4-1-1-3z" fill="#83817D"/>
<path transform="translate(275,372)" d="m0 0h27v1l-13 1-4 1h-8z" fill="#1E1D1C"/>
<path transform="translate(335,323)" d="m0 0 11 2 4 1-1 1h-16l-3 2v-5z" fill="#4D4944"/>
<path transform="translate(493,231)" d="m0 0 7 2 1 4-4 2-5-3v-2h2z" fill="#505053"/>
<path transform="translate(501,727)" d="m0 0 18 2 3 3-5 1-16-4z" fill="#27282A"/>
<path transform="translate(369,567)" d="m0 0 4 2-6 6-12-2 3-2h9l2-1z" fill="#8F9193"/>
<path transform="translate(892,502)" d="m0 0 5 2-5 4-5 3-2-1 1-3h2l1-3h3z" fill="#4B4C50"/>
<path transform="translate(809,496)" d="m0 0 2 2v12l-2-4-2 1 1-4-4-1z" fill="#55565A"/>
<path transform="translate(498,454)" d="m0 0 2 1v2l2 1-9 2-5-1 2-2z" fill="#A2A3A5"/>
<path transform="translate(486,434)" d="m0 0 4 2h3l3 5h-6v-2h-4v-2h-2v-2z" fill="#AAAAAB"/>
<path transform="translate(1007,369)" d="m0 0 8 1v3l-2-1-7 3-3 1v-3h2v-3z" fill="#C0A13D"/>
<path transform="translate(867,320)" d="m0 0h2l4 11 1 9-2 1-3-15-2-3z" fill="#B09141"/>
<path transform="translate(654,228)" d="m0 0h12v2l-3 1-1 2h-5l-4-3z" fill="#A7A8AA"/>
<path transform="translate(543,732)" d="m0 0h9l11 1-3 2h-17l-6-1v-1z" fill="#27282A"/>
<path transform="translate(700,717)" d="m0 0 2 1v2l4 1-1 1h-6v2h-7v-2l4-2h4z" fill="#57595D"/>
<path transform="translate(708,519)" d="m0 0 5 1 3 5 1 2-8-2-4-4h3z" fill="#27282A"/>
<path transform="translate(636,507)" d="m0 0 14 7v3h-3l-11-8z" fill="#434345"/>
<path transform="translate(746,468)" d="m0 0 5 2 7 5v2l3 3-1 2-5-4-5-6z" fill="#AF8E38"/>
<path transform="translate(799,419)" d="m0 0 5 1 2 1v2l5 2 2 2-4 2-6-5z" fill="#BCAF81"/>
<path transform="translate(589,417)" d="m0 0h7l-1 4-4 1v-2l-5 1-4 1-1-3z" fill="#A6A7A9"/>
<path transform="translate(695,394)" d="m0 0 1 3-8 6-8 4-2-1z" fill="#716D67"/>
<path transform="translate(559,396)" d="m0 0 2 1h3l5-1-4 3-9 3-4-1 2-3z" fill="#4A4B4F"/>
<path transform="translate(841,375)" d="m0 0 2 1v4l-3 3-3 1-1 1h-3l2-4 5-5z" fill="#7B7057"/>
<path transform="translate(858,363)" d="m0 0 4 1-5 3-3 3-6 1-1 3-2-2h2v-2z" fill="#635B4A"/>
<path transform="translate(687,357)" d="m0 0 6 3 5 1-3 2-4 1v2h-2z" fill="#6F7174"/>
<path transform="translate(393,253)" d="m0 0h5l-5 5-6 5-1-3z" fill="#252426"/>
<path transform="translate(520,245)" d="m0 0 3 2 1 8-4 7h-3l2-2 1-10z" fill="#E0BF5B"/>
<path transform="translate(489,231)" d="m0 0h3v3h-2l-2 5-3 10-1-4 3-9-2-1 2-3z" fill="#9C9DA0"/>
<path transform="translate(446,217)" d="m0 0h3l-1 6-6 5-3 1v-2l5-2-1-5z" fill="#919397"/>
<path transform="translate(255,204)" d="m0 0 3 1 1 9-2 6h-1l-1-5z" fill="#9B9C9D"/>
<path transform="translate(597,724)" d="m0 0h6l-2 1v2h17v1h-24l3-1z" fill="#55565A"/>
<path transform="translate(799,710)" d="m0 0 3 1-5 2-13 3h-3l1-3h2l5-2z" fill="#A0A2A4"/>
<path transform="translate(465,696)" d="m0 0h9l-2 5-7-1-4-3z" fill="#969798"/>
<path transform="translate(456,689)" d="m0 0h2l1 3 3 3-4 1-7-3 2-3 3 1z" fill="#A8A8A9"/>
<path transform="translate(1006,634)" d="m0 0h1l2 8v5h8v1h-12z" fill="#4C4D51"/>
<path transform="translate(503,450)" d="m0 0h7l3 3-3 2-4-1-2-1-3 1-1-2z" fill="#999A9C"/>
<path transform="translate(597,413)" d="m0 0 3 1-2 2-1 4-1-3-11 2v-2l7-3z" fill="#898B8E"/>
<path transform="translate(480,236)" d="m0 0 4 1-1 8-2 1-1-3-2 1 1-7z" fill="#484744"/>
<path transform="translate(458,691)" d="m0 0h6l5 5-4 1h-5l1-3z" fill="#C4C8CC"/>
<path transform="translate(883,672)" d="m0 0m-4 1 4 1-6 3-12 1 3-2 5-2z" fill="#252627"/>
<path transform="translate(309,539)" d="m0 0h3l-2 4-10 4-2-1 9-6z" fill="#2C2C2D"/>
<path transform="translate(672,530)" d="m0 0 11 7 1 2-5-1-10-3 4-1z" fill="#4A4848"/>
<path transform="translate(806,489)" d="m0 0 5 1 3 4h-2v11h-1l-1-10-4-3z" fill="#232323"/>
<path transform="translate(729,459)" d="m0 0 10 2 1 3 6 1 1 3-6-2-12-6z" fill="#C8A33B"/>
<path transform="translate(476,453)" d="m0 0h9l-2 1 4 4h-7l-4-2z" fill="#AEAEAF"/>
<path transform="translate(733,412)" d="m0 0 9 2-3 2 1 3-4 1-4-7z" fill="#6C6965"/>
<path transform="translate(1e3 607)" d="m0 0h1l1 7v11l-3 1z" fill="#4C4D51"/>
<path transform="translate(859,466)" d="m0 0 10 10-1 2-5-4-2 2-3-5z" fill="#454444"/>
<path transform="translate(832,454)" d="m0 0 7 6 2 2v3l-5-2-3-4z" fill="#6B5C44"/>
<path transform="translate(639,400)" d="m0 0 2 2-3 4-8 1 3-5z" fill="#A4A5A6"/>
<path transform="translate(442,364)" d="m0 0h6l-1 3-8 2-7-1v-1l10-1z" fill="#292828"/>
<path transform="translate(712,351)" d="m0 0 4 1-6 5-7 3-3-1 8-5z" fill="#A2A3A4"/>
<path transform="translate(401,299)" d="m0 0h6l-3 5-4 3-2-4z" fill="#343334"/>
<path transform="translate(407,622)" d="m0 0 5 1 3 6-9-3-3-2h4z" fill="#717376"/>
<path transform="translate(387,503)" d="m0 0 3 2 3 1-10 5-4-1z" fill="#75777B"/>
<path transform="translate(440,486)" d="m0 0 3 1zm-6 1 5 1v2l-13 4-4-1 12-5z" fill="#74767A"/>
<path transform="translate(897,461)" d="m0 0 4 4 5 6-1 2-8-7h-3z" fill="#363331"/>
<path transform="translate(483,347)" d="m0 0h5l-1 3-1 4-5 1-2-1v-2l3-3z" fill="#39393C"/>
<path transform="translate(394,322)" d="m0 0 4 2 11 11-1 2-10-10h-3z" fill="#64666A"/>
<path transform="translate(464,293)" d="m0 0 2 1-8 8-3 4h-3l2-6h3z" fill="#E8CF6F"/>
<path transform="translate(356,289)" d="m0 0h1v6l-5 5h-2l1-6z" fill="#242222"/>
<path transform="translate(385,261)" d="m0 0 4 1-1 7-2 1v-2l-5 1z" fill="#39393A"/>
<path transform="translate(318,208)" d="m0 0 5 1 6 3-1 2-7-1-1-2-6-1z" fill="#4E4E52"/>
<path transform="translate(1070,637)" d="m0 0 3 1-1 2-11 2-3-3z" fill="#313133"/>
<path transform="translate(415,621)" d="m0 0 5 4-2 5h-3l-1-7z" fill="#57585C"/>
<path transform="translate(257,570)" d="m0 0 2 1-3 1 1 4 2 1v3l-5-1-2-1 2-6z" fill="#515256"/>
<path transform="translate(891,535)" d="m0 0 3 2-10 8-3 1 2-4z" fill="#252424"/>
<path transform="translate(726,459)" d="m0 0 5 1 12 6-1 2-6-2-2-1v-2l-7-2z" fill="#363536"/>
<path transform="translate(875,445)" d="m0 0 4 2 5 6 2 5h-3l-2-3-3-3v-4l-3-1z" fill="#4B4C50"/>
<path transform="translate(808,431)" d="m0 0 5 1 2 5-12-1v-1l5-1z" fill="#6B5C44"/>
<path transform="translate(99,429)" d="m0 0 2 1v2h2l1 4-2 1-1 5-2-4-1-7z" fill="#F0D66E"/>
<path transform="translate(363,265)" d="m0 0 7 5-5 4-1-3h-2z" fill="#635A47"/>
<path transform="translate(457,726)" d="m0 0h6l5 2 8 2v1h-7l-10-2v-2z" fill="#55565A"/>
<path transform="translate(806,481)" d="m0 0 4 2 5 3v2h2l-1 3-2-4-9-2z" fill="#55565A"/>
<path transform="translate(979,451)" d="m0 0 2 1-4 5-4 3-4-2z" fill="#202022"/>
<path transform="translate(805,426)" d="m0 0 6 3v2l-2 1-1 3h-7v-1l5-1z" fill="#A98A3B"/>
<path transform="translate(600,413)" d="m0 0h4v5l-6 1-1-4z" fill="#9E9FA1"/>
<path transform="translate(722,405)" d="m0 0 9 2 1 4v3h-2l-5-5-3-2z" fill="#DABD60"/>
<path transform="translate(836,395)" d="m0 0 4 1v2l5 1 6 5-1 2-6-5-6-2z" fill="#BF9E3B"/>
<path transform="translate(708,394)" d="m0 0 4 1-9 3h-8l3-3z" fill="#B39237"/>
<path transform="translate(705,368)" d="m0 0 1 3-5 4-1 2h-7l-1-2h6v-2z" fill="#A1A3A5"/>
<path transform="translate(514,299)" d="m0 0 1 2-4 8-4 2-3 2 2-5z" fill="#201F1F"/>
<path transform="translate(307,260)" d="m0 0 3 2-4 7-1 5-3 1 2-8z" fill="#CCA63A"/>
<path transform="translate(487,229)" d="m0 0 7 1v4h-2v-3l-5 2-4 2h-3z" fill="#7A6D4F"/>
<path transform="translate(635,729)" d="m0 0 4 1-1 2h-2v2h-5l1-2-8-1v-1z" fill="#27282A"/>
<path transform="translate(519,728)" d="m0 0h8l2 4-3 1-7-3z" fill="#222020"/>
<path transform="translate(452,574)" d="m0 0 1 2h2v3l-4 2-1 2-2-1-1-5 4-1z" fill="#767675"/>
<path transform="translate(708,557)" d="m0 0 6 1v7l-3-1-2-2-2-3z" fill="#7B7976"/>
<path transform="translate(346,522)" d="m0 0 3 1v5l-4 1-3-1v-2h2z" fill="#A9AAAC"/>
<path transform="translate(685,500)" d="m0 0 9 1 8 2v2l-13-2z" fill="#CDAE54"/>
<path transform="translate(442,483)" d="m0 0 3 2 6-2 2 2-11 4-3-1z" fill="#6A6B6F"/>
<path transform="translate(447,478)" d="m0 0h2l1 6-6 2-2-6 5-1z" fill="#838588"/>
<path transform="translate(106,456)" d="m0 0 2 3 7 14h-3l-6-13z" fill="#E6BE3F"/>
<path transform="translate(511,419)" d="m0 0h4v3l-7 2-2 2-1-3-2-1z" fill="#ADAEAE"/>
<path transform="translate(287,354)" d="m0 0h1v7l-9 1-4-2 9-2z" fill="#322F2B"/>
<path transform="translate(744,333)" d="m0 0 2 4-4 5h-3v-4z" fill="#424347"/>
<path transform="translate(297,315)" d="m0 0 2 3-3 9-2 1v-7z" fill="#BB9A3B"/>
<path transform="translate(509,315)" d="m0 0v3l-5 6h-2l-1 2 1-4 2-5z" fill="#38393C"/>
<path transform="translate(454,254)" d="m0 0h1v7l-3 1-1-3-5 1 5-5z" fill="#252424"/>
<path transform="translate(890,669)" d="m0 0h10l-3 1v2l-9 1-1-2h3z" fill="#2C2C2E"/>
<path transform="translate(169,572)" d="m0 0 7 2v3l-4 1-3-1-1-4z" fill="#A8A8AA"/>
<path transform="translate(157,572)" d="m0 0 5 1-1 8h-3l-1-2z" fill="#A8A8AA"/>
<path transform="translate(266,561)" d="m0 0 1 3v3l-6 1v2l-4-1z" fill="#262525"/>
<path transform="translate(825,501)" d="m0 0 4 5 3 5 2 5-5-5-4-6z" fill="#46474B"/>
<path transform="translate(746,504)" d="m0 0 4 1 5 5 6 5-3 1-12-11z" fill="#A0A0A2"/>
<path transform="translate(850,455)" d="m0 0 6 2 5 5-2 1-7-4z" fill="#222223"/>
<path transform="translate(677,456)" d="m0 0 5 5 6 7-1 2-7-7-3-5z" fill="#868276"/>
<path transform="translate(877,439)" d="m0 0 5 3 4 6-1 2-5-4v-2l-4-2z" fill="#161617"/>
<path transform="translate(759,395)" d="m0 0 3 2v5h-7l2-2v-4z" fill="#E0C366"/>
<path transform="translate(693,363)" d="m0 0h4l-2 4-5 1v2l-3 1v-2h2v-3h2v-2z" fill="#A4A5A7"/>
<path transform="translate(319,336)" d="m0 0h1v6l-3 4-3-3 3-6z" fill="#201E1E"/>
<path transform="translate(413,280)" d="m0 0 5 1-1 4-5 4-1-3 4-3-4 1v-3z" fill="#CBAD4F"/>
<path transform="translate(352,206)" d="m0 0 1 4-9 9-2-1 7-8 1-3z" fill="#B7973B"/>
<path transform="translate(409,611)" d="m0 0 1 2h2l2-2 4 6-3 1-5-3z" fill="#929496"/>
<path transform="translate(665,532)" d="m0 0h3v13l-2-3-1-3z" fill="#222121"/>
<path transform="translate(210,519)" d="m0 0h5l-1 4-8 1v-2l-2-1z" fill="#A9ABAD"/>
<path transform="translate(908,475)" d="m0 0 6 5-1 2-5-1-4-3 1-2z" fill="#414142"/>
<path transform="translate(607,470)" d="m0 0h2v2l12 1-4 2h-8l-2-1z" fill="#6D634F"/>
<path transform="translate(688,402)" d="m0 0h7l-2 5-7-1z" fill="#CEAA3E"/>
<path transform="translate(1063,371)" d="m0 0 2 1 1 6-7 1 2-6z" fill="#696458"/>
<path transform="translate(607,372)" d="m0 0h5l-2 4h-6v2l-3-1v-2z" fill="#6C6E72"/>
<path transform="translate(658,362)" d="m0 0h5v2h-2l-2 5-8-2 4-2 4 1z" fill="#F8F8F7"/>
<path transform="translate(352,284)" d="m0 0 2 2-4 6h-2l-1-4 3-3z" fill="#B6983C"/>
<path transform="translate(480,242)" d="m0 0 2 3h2v6l-4 2z" fill="#606266"/>
<path transform="translate(603,731)" d="m0 0 12 1-2 2h-10z" fill="#181819"/>
<path transform="translate(798,702)" d="m0 0h2v2l8-1-3 2-9 2-3-3z" fill="#96989A"/>
<path transform="translate(886,670)" d="m0 0 4 1-2 1v2h-14l4-2z" fill="#47484B"/>
<path transform="translate(556,662)" d="m0 0h6l4 2-1 2h-7-3z" fill="#545559"/>
<path transform="translate(262,549)" d="m0 0h2l4 9-6 2 1-4z" fill="#4F5054"/>
<path transform="translate(754,530)" d="m0 0v3l-4 4h-2v2l-6 4 2-4z" fill="#4B4844"/>
<path transform="translate(473,435)" d="m0 0 2 1-1 4h-1zm-1 5 1 3-10 4v-2z" fill="#B7B7B6"/>
<path transform="translate(709,395)" d="m0 0 4 1 1 2-11 2-3-1z" fill="#E0BE53"/>
<path transform="translate(544,390)" d="m0 0 2 1-1 5-3 5-3-2 1-3 4-2-1-2z" fill="#45464A"/>
<path transform="translate(838,341)" d="m0 0h2l2 5-5 1v-2l-3-1 1-2z" fill="#7B7976"/>
<path transform="translate(767,332)" d="m0 0h5v2l-7 2v2l-4 3-2-1 5-5z" fill="#6B5C44"/>
<path transform="translate(109,321)" d="m0 0h5l-3 2-4 2h-8l1-2z" fill="#F6DD73"/>
<path transform="translate(731,314)" d="m0 0 5 3 2 4v4h-3l-2-6z" fill="#ADADAD"/>
<path transform="translate(213,302)" d="m0 0 2 3-2 2v4l-6 1 4-7z" fill="#343333"/>
<path transform="translate(382,265)" d="m0 0m-1 2m-1 1 5 1-1 3-6 1-3 3-2-1z" fill="#5D574C"/>
<path transform="translate(829,698)" d="m0 0m-4 1h4v2l-6 2h-7l4-3z" fill="#6E7074"/>
<path transform="translate(452,672)" d="m0 0 1 2-1 3h2v5l-4-2-2-3 3-1z" fill="#A7A8A9"/>
<path transform="translate(342,522)" d="m0 0 4 1-4 4h-8l2-2 4-2z" fill="#838588"/>
<path transform="translate(880,494)" d="m0 0 2 3v2l2 1-7 5-2-1 4-5z" fill="#404145"/>
<path transform="translate(743,467)" d="m0 0 4 2 5 4v2l3 1v2l-5-2-1-4-4-2z" fill="#343334"/>
<path transform="translate(601,380)" d="m0 0 5 2 1 2-9 3-2-2 5-3z" fill="#65666A"/>
<path transform="translate(763,352)" d="m0 0 1 3h-2l-1 6-8 1 5-4z" fill="#6B5C44"/>
<path transform="translate(431,334)" d="m0 0h3l1 4-3 5-2-4z" fill="#AD9349"/>
<path transform="translate(155,324)" d="m0 0 9 2 3 2h-11l-2-2z" fill="#EBC954"/>
<path transform="translate(316,311)" d="m0 0 1 2-3 4h-6l2-4z" fill="#494A4E"/>
<path transform="translate(398,309)" d="m0 0 2 1v2h2l-2 4-4 1v-5z" fill="#BB9837"/>
<path transform="translate(343,297)" d="m0 0 2 1-3 7-4 1v-5z" fill="#B79536"/>
<path transform="translate(451,258)" d="m0 0 1 4-5 5-1-7z" fill="#1A1A1A"/>
<path transform="translate(451,225)" d="m0 0 2 3 1 3-5 4-4-1 5-2-1-3z" fill="#545559"/>
<path transform="translate(158,607)" d="m0 0h12v2h5v1h-8l-9-2z" fill="#444547"/>
<path transform="translate(443,572)" d="m0 0 1 2h2l1 3-5 3-2-5z" fill="#7A7876"/>
<path transform="translate(677,498)" d="m0 0 6 1 2 2h-3v2h-2l-1 2-2-4z" fill="#897442"/>
<path transform="translate(804,492)" d="m0 0 1 4-3 6-4-1-3-6h2l2 5h2v-2h2z" fill="#A3843C"/>
<path transform="translate(588,483)" d="m0 0 6 1 4 2-3 1h-7z" fill="#444548"/>
<path transform="translate(756,480)" d="m0 0 7 6h-3-5l-1-4h2z" fill="#201E1E"/>
<path transform="translate(472,461)" d="m0 0h2v9h-3l-1-6z" fill="#959799"/>
<path transform="translate(842,456)" d="m0 0 10 4-4 1h-6l-1-4z" fill="#B79536"/>
<path transform="translate(823,440)" d="m0 0 7 1 5 4-1 2-10-5z" fill="#D7AC3A"/>
<path transform="translate(478,430)" d="m0 0 1 4-2 1v4h-2l-2-7z" fill="#A9A9AA"/>
<path transform="translate(587,419)" d="m0 0h5l-1 3-4 2h-5v-2z" fill="#9D9EA0"/>
<path transform="translate(668,381)" d="m0 0 2 1-6 5-5 3h-2v-2z" fill="#696A6E"/>
<path transform="translate(311,366)" d="m0 0h14v3l-11-1z" fill="#27282B"/>
<path transform="translate(194,324)" d="m0 0 2 4-4 5h-2l-2-5 3-3 1 4z" fill="#EED269"/>
<path transform="translate(363,317)" d="m0 0h1l-1 9-3 5-1-4z" fill="#1F1D1D"/>
<path transform="translate(304,279)" d="m0 0 2 3-3 1-1 5h-2l-1-6 2-2 3 2z" fill="#C3A23B"/>
<path transform="translate(438,271)" d="m0 0v3l-4 2-2 4-2-3v-2l4-2z" fill="#514C44"/>
<path transform="translate(486,245)" d="m0 0 2 2 2-2-1 4-4 4-4-1 3-3z" fill="#2E2D2F"/>
<path transform="translate(305,231)" d="m0 0h2v2l4-1 6 3-4 1-12-3z" fill="#8E8570"/>
<path transform="translate(674,223)" d="m0 0 6 1-2 2-5 2h-5l3-4z" fill="#AAABAD"/>
<path transform="translate(765,717)" d="m0 0 2 1-1 3-4 1h-7l2-2 8-1z" fill="#98999B"/>
<path transform="translate(267,558)" d="m0 0 1 2h2v3l3-1v2l-6 2-1-7z" fill="#2C2D2F"/>
<path transform="translate(711,553)" d="m0 0 4 2 4 5-3 1-5-4z" fill="#292828"/>
<path transform="translate(912,491)" d="m0 0h9l-4 3-5 3-3-1h2z" fill="#3D3E42"/>
<path transform="translate(787,488)" d="m0 0 5 4v3l-9-3-1-2 5 1z" fill="#3A3632"/>
<path transform="translate(413,482)" d="m0 0h4l-1 3-6 2-4-2z" fill="#898A8D"/>
<path transform="translate(473,441)" d="m0 0 4 1-2 5h-3l-2 2-1-3h2z" fill="#B0B0B0"/>
<path transform="translate(484,427)" d="m0 0 3 1-4 1v2l-11 1 4-3z" fill="#B7B9BC"/>
<path transform="translate(768,424)" d="m0 0h7l6 4-3 1-10-4z" fill="#C09D3C"/>
<path transform="translate(702,389)" d="m0 0 2 1-1 4-7 2v-3z" fill="#645E56"/>
<path transform="translate(519,391)" d="m0 0 3 2-1 5h-2v-3l-6-1v-2h5z" fill="#545559"/>
<path transform="translate(667,389)" d="m0 0 4 1-3 3-5 3h-2l1-3z" fill="#7D7F82"/>
<path transform="translate(719,376)" d="m0 0 2 3-1 5h-6l2-5z" fill="#6E6B65"/>
<path transform="translate(393,312)" d="m0 0 3 2-1 5-4-1v-4z" fill="#414244"/>
<path transform="translate(474,302)" d="m0 0 2 3-2 7-3-3v-4z" fill="#D0AA41"/>
<path transform="translate(273,225)" d="m0 0h9l1 3-18-1v-1z" fill="#898680"/>
<path transform="translate(455,216)" d="m0 0 5 2-1 4h-4v-2h-2v-2h2z" fill="#86754F"/>
</svg>
